<svg xmlns="http://www.w3.org/2000/svg" width="115.974" height="23.314" viewBox="0 0 115.974 23.314">
  <g id="Group_133" data-name="Group 133" transform="translate(0)">
    <path id="Path_304" data-name="Path 304" d="M-1627.973,862.607a24.833,24.833,0,0,1-3.561,3.092.2.2,0,0,0-.013.345c.115.089.2.158.3.23a.624.624,0,0,0,.689-.008c.84-.687,1.327-1.12,2.292-2.047a.614.614,0,0,1,.593-.084l3.073,1.163c.221.084.274.27.115.4a52.739,52.739,0,0,1-5.458,3.88c-.279.175-.068.471.329.46.35-.01.619-.019.886-.031s.469-.18.388-.346-.16-.311-.284-.518c-.085-.142.033-.3.265-.35l2.608-.556a.556.556,0,0,1,.547.154,14.2,14.2,0,0,1,1.887,3.97c.043.135-.086.271-.3.312l-3.042.583c-.264.051-.536-.061-.563-.232-.034-.221-.062-.377-.095-.548-.029-.147-.245-.253-.484-.235l-.552.044c-2.1.209-3.408.307-6.245.483-.238.015-.417.146-.394.294h0c.021.138.209.244.433.244h3.468c.262,0,.462.142.431.3a5.424,5.424,0,0,0-.09,1.106v1.577c0,.148.194.269.435.269h.819c.241,0,.435-.121.435-.269v-1.261a7.063,7.063,0,0,0-.071-1.044c-.022-.157.178-.292.433-.292h3.638c.255,0,.455.136.433.293a7.01,7.01,0,0,0-.072,1.043v4.008a7.547,7.547,0,0,0,.068,1.047c.022.156-.179.29-.433.29h-3.639c-.256,0-.457-.137-.433-.295.01-.065.018-.128.024-.2.014-.155-.184-.286-.435-.286h-.256c-.241,0-.436.121-.436.269v2.209a10.441,10.441,0,0,0,.178,1.812c.029.16-.171.3-.432.3h-4.67c-.262,0-.464-.142-.432-.3a8.277,8.277,0,0,0,.13-1.737v-8.478c0-.073-.039-.122-.039-.243l-1.061.17a2.171,2.171,0,0,0-.039.437v1.021c0,3.134-.275,4.592-1.1,5.806a8.741,8.741,0,0,1-4.165,2.745c-.721.245-1.443.449-2.77.782a.578.578,0,0,1-.554-.131,11.36,11.36,0,0,0-2.1-2.08c-.259-.2-.78-.084-.776.171a8,8,0,0,0,.126,1.539c.031.16-.17.3-.432.3h-4.6c-.257,0-.458-.136-.433-.295a14.433,14.433,0,0,0,.144-2.4v-.833c0-.18-.279-.31-.558-.258-.844.154-2.572.475-5.166.944l-.027,0c-.4.055-.581.086-.761.126-.254.056-.527-.044-.572-.209l-.85-3.092c-.043-.156.137-.3.392-.313.272-.014.62-.042,1.123-.094.211-.022.368-.134.368-.266v-11.9c0-.155-.213-.278-.464-.269-.158.006-.29.011-.431.02-.257.015-.48-.109-.48-.268V862.1c0-.163.234-.289.495-.266.877.078,1.69.1,3.317.1h6.916c1.675,0,2.582-.017,3.431-.093.263-.024.5.1.5.266v1.587a.233.233,0,0,0,.128.19l.462.286a15.558,15.558,0,0,0,2.5-2.876.558.558,0,0,1,.577-.145l3.616,1c.241.067.33.252.19.39a31.673,31.673,0,0,1-3.736,3.3.2.2,0,0,0,0,.346c.059.043.113.084.168.126a.622.622,0,0,0,.679,0,22.823,22.823,0,0,0,2.268-2.036.611.611,0,0,1,.589-.1l.756.266a.627.627,0,0,0,.56-.07l1.157-.931a.63.63,0,0,1,.655-.026l.362.224a.627.627,0,0,0,.65-.022,11.576,11.576,0,0,0,2.115-2.259.565.565,0,0,1,.576-.139l3.594,1C-1627.929,862.287-1627.839,862.468-1627.973,862.607Zm-26.073,4.524h.819c.241,0,.436-.121.436-.269v-1.308c0-.149-.195-.27-.436-.27h-.819c-.24,0-.435.121-.435.27v1.308C-1654.481,867.01-1654.286,867.131-1654.046,867.131Zm0,4.786h.819c.241,0,.436-.121.436-.27v-1.283c0-.148-.195-.269-.436-.269h-.819c-.24,0-.435.121-.435.269v1.283C-1654.481,871.8-1654.286,871.917-1654.046,871.917Zm.1,5.121c.392-.056.552-.082.837-.133.186-.033.315-.139.315-.259v-1.5c0-.148-.195-.269-.436-.269h-.819c-.24,0-.435.121-.435.269v1.627C-1654.481,876.95-1654.217,877.078-1653.944,877.039Zm6.3-6.8h.516a.6.6,0,0,0,.319-.086c1.024-.669,1.217-.8,1.55-1.016a.2.2,0,0,0,.035-.342,23.39,23.39,0,0,0-2.095-1.586c-.267-.184-.762-.068-.762.179v2.582C-1648.076,870.12-1647.881,870.241-1647.641,870.241Zm9.08,2.772c-.008-.072-.016-.139-.029-.215-.025-.15-.245-.259-.488-.242-2.577.19-3.225.219-6.208.357-1.651.077-1.993.093-2.417.133-.214.02-.373.133-.373.266v7.937c0,.173.263.3.535.262a15.38,15.38,0,0,0,2.411-.485,6.9,6.9,0,0,0,2.3-1.011c.24-.176.039-.446-.333-.446h-1.38c-.138,0-.824.019-2,.057-.266.008-.483-.133-.458-.3a5.022,5.022,0,0,0,.066-.782v-3.838a4.618,4.618,0,0,0-.065-.771c-.026-.159.175-.3.432-.3h3.429c.258,0,.458.138.433.3a5.625,5.625,0,0,0-.064.918v1.431c0,.148.2.269.435.269h.675c.236,0,.429-.117.436-.263.026-.561.026-.9.026-1.34a10.169,10.169,0,0,0-.072-1.36c-.021-.158.178-.292.433-.292H-1639C-1638.742,873.3-1638.543,873.169-1638.561,873.013Zm2.024-4.331a7.762,7.762,0,0,1,.486.892c.09.2.493.265.729.119.35-.218.581-.364.9-.571a.2.2,0,0,0,.035-.35c-.682-.548-1.459-1.11-2.269-1.674a.633.633,0,0,0-.663.007c-1.559,1.152-2.6,1.861-3.757,2.579-.287.178-.061.481.344.459l.873-.047c.269-.014.456-.176.389-.337a4.04,4.04,0,0,0-.234-.465c-.084-.146.046-.3.286-.349l2.349-.431A.538.538,0,0,1-1636.537,868.681Z" transform="translate(1661.203 -861.089)"/>
    <path id="Path_305" data-name="Path 305" d="M-1578.859,874.572l-.054-.2c-.046-.163-.29-.277-.556-.256-.323.024-.564.036-.875.053-.259.015-.459.149-.459.31v7.006a10.881,10.881,0,0,0,.155,2.344c.039.187-.195.352-.5.352h-4.422c-.3,0-.537-.163-.5-.349a10.982,10.982,0,0,0,.158-2.348v-6.739c0-.179-.245-.321-.534-.311-.815.029-1.154.032-1.548.052-1.383.039-1.937.063-2.585.108-.283.019-.538-.109-.56-.285l-.342-2.709c-.025-.2.249-.357.565-.333.351.027.7.037,1.311.037.035,0,.4,0,1.191-.018a.67.67,0,0,0,.372-.113c.171-.128.3-.239.517-.429a.224.224,0,0,0,.021-.349,27.892,27.892,0,0,0-4.035-3.518.227.227,0,0,1-.064-.353l2.111-2.415a.7.7,0,0,1,.834-.048l.012.009a.692.692,0,0,0,.843-.062,11.5,11.5,0,0,0,1.689-2.718c.072-.179.383-.275.662-.211l4.027.931c.289.067.417.278.263.444-.194.209-.431.513-1.136,1.416a30.568,30.568,0,0,1-2.609,2.907.218.218,0,0,0,.025.348c.083.069.155.13.229.2a.7.7,0,0,0,.848-.019,32.064,32.064,0,0,0,2.927-3.37.658.658,0,0,1,.686-.153l3.685,1.139c.27.084.363.292.2.448-.144.135-.349.346-.8.811a4.779,4.779,0,0,0-.472.462,16.754,16.754,0,0,0,4.755-2.866,11.66,11.66,0,0,0,1.963-2.3.579.579,0,0,1,.551-.21l5.088.457c.34.031.531.259.377.449l-.3.377c-.167.207.076.452.45.452h3.625c1.308,0,2.107-.02,2.913-.094a.685.685,0,0,1,.454.108l2.279,1.674a.223.223,0,0,1,.039.368c-.238.228-.569.592-1.284,1.346a26.483,26.483,0,0,1-3.8,3.352c-.22.161-.127.406.185.49a38.5,38.5,0,0,0,5.955,1.093c.314.037.492.241.374.424a8.414,8.414,0,0,0-1.269,3.124c-.038.189-.335.316-.633.265l-.731-.123v6.681a12.413,12.413,0,0,0,.124,2.085c.032.184-.2.345-.5.345h-4.936c-.278,0-.5-.14-.5-.312v-.4c0-.172-.226-.311-.5-.311h-5.358c-.278,0-.5.139-.5.311v.4c0,.172-.225.312-.5.312h-4.857c-.3,0-.533-.162-.5-.348a11.33,11.33,0,0,0,.124-2.009v-6.656a3.424,3.424,0,0,0-.348.051.576.576,0,0,1-.631-.228c-.046-.12-.086-.218-.129-.314a.6.6,0,0,0-.642-.21l-1.938.394C-1578.5,874.875-1578.808,874.759-1578.859,874.572Zm-7.851,1.165a25.333,25.333,0,0,1-1.038,6.9c-.062.2-.427.315-.726.221l-2.9-.915c-.207-.065-.312-.212-.258-.352a17.929,17.929,0,0,0,1.183-6.155c.011-.188.287-.33.587-.3l2.732.284C-1586.883,875.444-1586.7,875.582-1586.711,875.737Zm9.513-6.511a17.068,17.068,0,0,1,1.234,2.012.605.605,0,0,0,.622.2,31.454,31.454,0,0,0,4.367-1.055c.3-.1.362-.34.135-.491-.485-.323-.854-.592-1.3-.942a.735.735,0,0,0-.74-.038c-.525.3-.938.494-1.651.834a.7.7,0,0,1-.745-.092,12.093,12.093,0,0,0-2.573-2.093.721.721,0,0,0-.777.04c-.977.889-2.33,2.016-3.658,3.067-.266.21,0,.515.427.5s.745-.026,1.139-.048c.32-.018.534-.215.437-.4-.11-.214-.219-.409-.39-.7-.095-.161.038-.342.3-.4l2.533-.569A.643.643,0,0,1-1577.2,869.226Zm.637,6.252a32.548,32.548,0,0,1,.922,5.374c.013.155-.161.294-.407.324l-2.757.337c-.307.038-.593-.107-.6-.3a25.856,25.856,0,0,0-.733-5.413c-.042-.171.148-.332.425-.357l2.58-.228C-1576.859,875.191-1576.6,875.309-1576.561,875.478Zm14.409-1.7c-1.038-.3-2.039-.641-3.129-1.052a.79.79,0,0,0-.548.008c-1.015.422-1.889.748-2.853,1.046-.477.147-.311.59.222.59h6.094C-1561.827,874.37-1561.664,873.919-1562.151,873.777Zm-6.667-7.547a12.615,12.615,0,0,0,2.483,1.73.749.749,0,0,0,.689-.013,11.016,11.016,0,0,0,1.846-1.374c.229-.207-.009-.49-.414-.49h-4.408Zm.543,13.58h5.358c.278,0,.5-.14.5-.312v-1.515c0-.172-.226-.311-.5-.311h-5.358c-.278,0-.5.139-.5.311V879.5C-1568.78,879.672-1568.554,879.811-1568.276,879.811Z" transform="translate(1631.221 -861.064)"/>
    <path id="Path_306" data-name="Path 306" d="M-1488.024,873.214c.664.256.838.807.378,1.2l-.6.508a30.143,30.143,0,0,1-3.732,2.943.613.613,0,0,0-.137,1.033l.036.033c.681.622,2.238.422,2.448-.319l.009-.032c.171-.609,1.316-.895,2.124-.531.581.262,1.132.479,1.8.717.5.176.766.526.664.874a7.289,7.289,0,0,1-1.839,3.492,4.243,4.243,0,0,1-3.025,1.215,10.645,10.645,0,0,1-4.912-1.773,10.8,10.8,0,0,1-1.537-1.089,1.95,1.95,0,0,0-1.9-.191,41.864,41.864,0,0,1-5.213,1.981,1.857,1.857,0,0,1-1.762-.326,19.4,19.4,0,0,0-1.82-1.669c-.53-.431-.254-1.051.548-1.267a41.141,41.141,0,0,0,6.066-2.1c.481-.212.688-.593.5-.939a15.929,15.929,0,0,1-1.543-4.63c-.087-.416-.659-.73-1.337-.73h-4.221c-.744,0-1.348.373-1.348.833v.232c0,.529.786.923,1.622.816.658-.084,1.3-.167,2.185-.283.834-.109,1.622.282,1.628.809l.02,1.691c0,.389-.429.728-1.042.817-1.559.227-2.485.359-3.343.469-.624.08-1.07.421-1.07.815v3.2c0,1.822-.668,2.648-2.476,3.037a19,19,0,0,1-4.086.267c-.783,0-1.48-.013-2.407-.05a1.281,1.281,0,0,1-1.246-.7,8.56,8.56,0,0,0-.634-1.69c-.278-.562.441-1.125,1.389-1.08.675.032,1.2.04,1.993.04,1.336,0,1.611-.121,1.611-.656v-1.422c0-.512-.737-.9-1.555-.823l-3.16.3-.562.051c-.737.068-1.424-.245-1.534-.7l-.472-1.952c-.116-.479.452-.922,1.235-.954,1.162-.047,2.655-.151,4.875-.332.67-.055,1.172-.408,1.172-.826v-1.062c0-.46-.6-.833-1.348-.833h-.931c-1.382,0-2.6.021-3.6.062-.775.032-1.427-.352-1.427-.832v-1.9c0-.483.662-.869,1.441-.831,1.026.049,2.224.071,3.628.071h.892c.744,0,1.348-.373,1.348-.833v-.118c0-.509-.731-.9-1.544-.824s-1.484.128-2.684.213a1.492,1.492,0,0,1-1.452-.6,10.834,10.834,0,0,0-.854-1.547c-.345-.518.238-1.091,1.141-1.139a75.57,75.57,0,0,0,12.669-1.53,1.8,1.8,0,0,1,1.706.4l1.406,1.713c.4.481-.042,1.064-.892,1.188l-1.831.266c-.28.049-.489.08-.755.117-.614.086-1.052.423-1.052.813v1.03c0,.46.6.833,1.348.833h3.543c.765,0,1.376-.391,1.347-.863-.041-.667-.094-1.49-.148-2.66-.057-1.01-.087-1.554-.12-1.916-.043-.477.572-.878,1.346-.878h3.314c.77,0,1.38.4,1.346.874-.023.319-.031.764-.031,1.482,0,1.259.025,2.131.095,3.136.031.447.623.8,1.346.8h1.292c1.06,0,1.7-.722,1.141-1.278a24.89,24.89,0,0,0-2.7-2.3c-.514-.387-.367-.966.317-1.234l2.154-.844a1.994,1.994,0,0,1,1.72.143,32.784,32.784,0,0,1,3.918,3.047c.414.378.254.894-.354,1.153l-3.077,1.31h.551c1.2,0,2.13-.019,2.992-.059.782-.036,1.448.345,1.448.831v1.894c0,.484-.662.862-1.442.831-1.155-.047-2.391-.071-3.627-.071h-3.7c-.819,0-1.451.45-1.335.951q.046.2.094.384c.2.757,1.793.964,2.468.32a9.3,9.3,0,0,0,.669-.7,1.841,1.841,0,0,1,1.892-.3Z" transform="translate(1600.983 -861.371)"/>
  </g>
</svg>
