<svg id="Group_158" data-name="Group 158" xmlns="http://www.w3.org/2000/svg" width="406.132" height="42.435" viewBox="0 0 406.132 42.435">
  <path id="Path_309" data-name="Path 309" d="M184.216,68.939v34.582c0,.579-.884,1.049-1.976,1.049h-9.084c-1.091,0-1.976-.47-1.976-1.049h0c0-.578-.885-1.048-1.977-1.048H135.732c-1.091,0-1.977.47-1.977,1.048h0c0,.579-.884,1.049-1.976,1.049h-8.411c-1.091,0-1.976-.47-1.976-1.049V68.939c0-.579.884-1.048,1.976-1.048h18.112c.945,0,1.755-.354,1.94-.846a35.352,35.352,0,0,0,1.209-3.815c.14-.562,1.091-.96,2.154-.9l10.474.562c1.3.069,2.121.78,1.644,1.426-.535.724-1.085,1.438-1.623,2.124s.411,1.452,1.823,1.452h23.137C183.332,67.891,184.216,68.36,184.216,68.939Zm-50.461,6.2v1.34c0,.578.885,1.048,1.977,1.048H169.2c1.091,0,1.977-.47,1.977-1.048v-1.34c0-.579-.885-1.048-1.977-1.048H135.732C134.64,74.093,133.755,74.562,133.755,75.142Zm0,9.416v1.383c0,.578.885,1.048,1.977,1.048H169.2c1.091,0,1.977-.47,1.977-1.048V84.557c0-.579-.885-1.048-1.977-1.048H135.732C134.64,83.509,133.755,83.978,133.755,84.557Zm37.426,10.888V94.017c0-.579-.885-1.048-1.977-1.048H135.732c-1.091,0-1.977.469-1.977,1.048v1.428c0,.579.885,1.048,1.977,1.048H169.2C170.3,96.494,171.181,96.024,171.181,95.445Z" transform="translate(-121.393 -62.314)" fill="#fff"/>
  <path id="Path_310" data-name="Path 310" d="M295.093,71.748v31.86c0,.6-.922,1.093-2.06,1.093h-8.746c-1.138,0-2.06-.489-2.06-1.093h0c0-.6-.922-1.093-2.06-1.093H240.553c-1.138,0-2.06.49-2.06,1.093h0c0,.6-.922,1.093-2.06,1.093h-8.158c-1.138,0-2.06-.489-2.06-1.093V71.748c0-.6.923-1.093,2.06-1.093h23.3c1.138,0,2.06-.49,2.06-1.093V63.4c0-.6.923-1.093,2.06-1.093h8.495c1.138,0,2.06.489,2.06,1.093v6.158c0,.6.922,1.093,2.06,1.093h24.727C294.171,70.655,295.093,71.144,295.093,71.748Zm-56.6,6.559v4.062c0,.6.923,1.093,2.06,1.093h11.018c1.138,0,2.06-.49,2.06-1.093V78.307c0-.6-.922-1.093-2.06-1.093H240.553C239.416,77.214,238.493,77.7,238.493,78.307Zm2.06,17.782h11.018c1.138,0,2.06-.489,2.06-1.093V90.89c0-.6-.922-1.093-2.06-1.093H240.553c-1.138,0-2.06.49-2.06,1.093V95C238.493,95.6,239.416,96.09,240.553,96.09Zm25.693-17.782v4.062c0,.6.922,1.093,2.06,1.093h11.86c1.138,0,2.06-.49,2.06-1.093V78.307c0-.6-.922-1.093-2.06-1.093h-11.86C267.169,77.214,266.247,77.7,266.247,78.307ZM282.226,95V90.89c0-.6-.922-1.093-2.06-1.093h-11.86c-1.138,0-2.06.49-2.06,1.093V95c0,.6.922,1.093,2.06,1.093h11.86C281.3,96.09,282.226,95.6,282.226,95Z" transform="translate(-145.473 -62.311)" fill="#fff"/>
  <path id="Path_311" data-name="Path 311" d="M405.725,70.8c-2.111.959-4.3,1.863-6.309,2.649-.66.259-.558.8.191.981,2.287.545,4.7,1.024,7.257,1.425.771.12,1.059.619.518.935a38.006,38.006,0,0,0-5.554,4.016,1.662,1.662,0,0,1-1.282.249c-2.046-.364-3.975-.792-5.844-1.249-.723-.177-1.548.1-1.548.52v1.813c0,1.071.169,1.473,1.178,1.473h2.943c.9,0,2.215-.045,3.3-.136.629-.052,1.2.186,1.249.523.14,1.033.324,2.251.551,3.238.067.29-.284.565-.821.626a38.7,38.7,0,0,1-4.106.166h-4.29c-8.242,0-9.839-1.785-9.839-5.935V81.058c0-.317-.486-.575-1.085-.575h-3.747c-.553,0-1.007.221-1.074.512-.55,2.367-2.153,4.807-6.011,6.751-.712.358-.247.992.735.992h19.939c.049,0,.1,0,.146-.005l1.529-.11a2,2,0,0,1,.485.023l5.385.941c.565.1.883.424.7.725a21.213,21.213,0,0,1-7.183,6.864c-.454.278-.329.7.275.883,2.515.752,4.816,1.45,6.725,2.077.546.179.682.568.294.839l-4.79,3.342a1.789,1.789,0,0,1-1.483.123c-2.5-.916-5.81-1.986-9.451-3.126a1.931,1.931,0,0,0-1.088,0,97.633,97.633,0,0,1-17.231,3.341,1.484,1.484,0,0,1-1.233-.331,23.146,23.146,0,0,0-3.349-3.277,1.629,1.629,0,0,0-1.9.116,4.7,4.7,0,0,1-1.392,1.23,16.173,16.173,0,0,1-7.485,1.7c-2.263.166-6.12.178-10.293.143-.535,0-.993-.215-1.055-.5a9.052,9.052,0,0,0-2.369-4c-.384-.4.2-.858,1.041-.829,3.239.112,6.267.142,7.8.142a7.038,7.038,0,0,0,3.112-.446c.761-.363,1.385-1.421,1.87-3.4.085-.346-.417-.656-1.075-.656H335.873c-.685,0-1.2-.333-1.063-.689a72.41,72.41,0,0,0,3.068-10.272c.062-.291.522-.507,1.074-.507H350.86c.6,0,1.084-.257,1.084-.575V81.371c0-.318-.485-.575-1.084-.575H340.59v-.759c-1.9.467-3.81.9-5.77,1.3a1.663,1.663,0,0,1-1.322-.241,39.878,39.878,0,0,0-4.917-3.656c-.5-.315-.217-.793.523-.92a82.412,82.412,0,0,0,9.41-2.2c.72-.213.73-.765.025-.992-1.258-.4-2.579-.8-3.8-1.165-.641-.189-.746-.652-.213-.919l4.974-2.492h-1.859c-.6,0-1.085-.258-1.085-.575V64.325c0-.318.486-.575,1.085-.575h20.5a2.088,2.088,0,0,0,.23-.013l1.457-.169a1.986,1.986,0,0,1,.7.043l6.3,1.6c.524.132.766.464.538.747-2.889,3.587-7.13,6.577-12.321,9.02-.746.351-.281,1,.715,1h5.875c.6,0,1.085.258,1.085.575v6.463c0,.522,1.223.78,1.886.393,2.642-1.54,2.992-3.194,2.992-4.754V76.239c0-.318.486-.575,1.085-.575h11.091c.973,0,1.454-.628.751-.984a41.483,41.483,0,0,1-13-9.961c-.273-.32.062-.7.7-.794l7.65-1.155a1.512,1.512,0,0,1,1.276.317,22.165,22.165,0,0,0,2.62,2.51,1.757,1.757,0,0,0,1.652.1,48.221,48.221,0,0,0,4.744-2.649,1.8,1.8,0,0,1,1.453-.1l6.745,2.512c.585.218.622.673.071.914-2.449,1.073-4.907,2.082-7.114,2.948-.558.22-.588.651-.07.9.622.3,1.278.582,1.942.866a1.866,1.866,0,0,0,1.377-.007,68.1,68.1,0,0,0,6.842-3.583,1.832,1.832,0,0,1,1.443-.1l6.791,2.494C406.212,70.1,406.262,70.552,405.725,70.8Zm-59.951-.967c.606.175,1.2.35,1.763.525a1.868,1.868,0,0,0,1.307-.08q.527-.273,1.029-.554c.655-.366.157-.972-.795-.972h-2.794C345.158,68.748,344.783,69.544,345.774,69.828Zm19.71,23.149V89.313c0-.317.485-.575,1.085-.575h1.438c-.856-.545-2.139-1.275-3.454-1.967-.682-.36-1.844-.1-1.844.411h0c0,.318-.485.575-1.085.575H347.5c-.539,0-1,.21-1.073.494l-.279,1.036c-.094.347.413.656,1.073.656h14.358c.618,0,1.112.273,1.084.6a12.418,12.418,0,0,1-.208,1.542,31.242,31.242,0,0,1-1.548,7.157c-.162.4.476.762,1.233.692a93.8,93.8,0,0,0,9.778-1.358c.871-.174.95-.812.132-1.048-2.579-.746-5.121-1.474-7.482-2.127-.614-.169-.771-.593-.329-.876l2.421-1.547Zm13.8,1.085c1.033.279,2.065.565,3.087.858a1.849,1.849,0,0,0,1.261-.09c.558-.289,1.1-.585,1.6-.89.622-.374.134-.962-.806-.962h-4.656C378.634,92.977,378.267,93.787,379.283,94.062Z" transform="translate(-168.932 -62.411)" fill="#fff"/>
  <path id="Path_312" data-name="Path 312" d="M463.349,86.96c-1.856.3-3.719.572-5.625.844-.5.071-.843.309-.843.581v9.624c0,2.811-.842,4.462-3.7,5.444-2.68.961-6.246,1.218-11.253,1.246-.569,0-1.058-.218-1.135-.518a16.055,16.055,0,0,0-2.27-4.644c-.282-.406.3-.83,1.109-.813,2.063.041,3.93.033,4.719,0,1.009,0,1.346-.134,1.346-.714v-7.69c0-.4-.711-.686-1.433-.582l-4.225.609c-.628.09-1.27-.117-1.407-.454L436.6,84.909c-.134-.33.263-.65.885-.716,2.193-.235,4.669-.538,7.311-.85.519-.061.9-.306.9-.588V76.969c0-.333-.508-.6-1.135-.6h-5.635c-.627,0-1.135-.27-1.135-.6v-4.73c0-.333.508-.6,1.135-.6h5.635c.627,0,1.135-.27,1.135-.6V62.913c0-.333.508-.6,1.135-.6h8.915c.627,0,1.135.27,1.135.6V69.83c0,.333.508.6,1.135.6h4.458c.627,0,1.135.27,1.135.6v4.73c0,.333-.508.6-1.135.6h-4.458c-.627,0-1.135.27-1.135.6v4.065c0,.394.7.681,1.417.583l3.237-.441c.656-.089,1.314.144,1.407.5l1.205,4.621C464.224,86.591,463.885,86.874,463.349,86.96Zm51.939,12.789h-18.5c-.627,0-1.135.27-1.135.6v3.793c0,.333-.508.6-1.135.6H485.6c-.627,0-1.135-.27-1.135-.6v-3.793c0-.333-.508-.6-1.135-.6H464.155c-.627,0-1.135-.27-1.135-.6V95.175c0-.333.508-.6,1.135-.6H483.33c.627,0,1.135-.27,1.135-.6v-.089c0-.333-.508-.6-1.135-.6H469.2c-.627,0-1.135-.27-1.135-.6V79.245c0-.333.508-.6,1.135-.6h14.13c.627,0,1.135-.27,1.135-.6h0c0-.333-.508-.6-1.135-.6H468.191c-.627,0-1.135-.27-1.135-.6V73.087c0-.333.508-.6,1.135-.6H483.33c.627,0,1.135-.27,1.135-.6V70.008c0-.333.508-.6,1.135-.6h8.915c.627,0,1.135.27,1.135.6v1.874c0,.333.508.6,1.135.6h15.727c.627,0,1.135.27,1.135.6v3.748c0,.333-.508.6-1.135.6H496.786c-.627,0-1.135.27-1.135.6h0c0,.333.508.6,1.135.6h14.97c.627,0,1.135.27,1.135.6V92.676c0,.333-.508.6-1.135.6h-14.97c-.627,0-1.135.27-1.135.6v.089c0,.333.508.6,1.135.6h18.5c.627,0,1.135.27,1.135.6v3.972C516.423,99.479,515.915,99.748,515.288,99.748ZM474.836,71.771h-8.243c-.627,0-1.135-.27-1.135-.6V64.519c0-.332.508-.6,1.135-.6h46.929c.627,0,1.135.27,1.135.6v6.649c0,.333-.508.6-1.135.6h-8.746c-.627,0-1.135-.27-1.135-.6v-1.7c0-.333-.508-.6-1.135-.6h-25.4c-.627,0-1.135.27-1.135.6v1.7C475.971,71.5,475.463,71.771,474.836,71.771Zm4.877,12.315h3.616c.627,0,1.135-.27,1.135-.6v-.134c0-.332-.508-.6-1.135-.6h-3.616c-.627,0-1.135.27-1.135.6v.134C478.578,83.816,479.087,84.086,479.714,84.086Zm4.752,4.485v-.134c0-.333-.508-.6-1.135-.6h-3.616c-.627,0-1.135.27-1.135.6v.134c0,.333.508.6,1.135.6h3.616C483.957,89.173,484.466,88.9,484.466,88.571Zm11.185-5.222v.134c0,.333.508.6,1.135.6h3.953c.627,0,1.135-.27,1.135-.6v-.134c0-.332-.508-.6-1.135-.6h-3.953C496.159,82.747,495.651,83.017,495.651,83.349Zm5.088,4.485h-3.953c-.627,0-1.135.27-1.135.6v.134c0,.333.508.6,1.135.6h3.953c.627,0,1.135-.27,1.135-.6v-.134C501.874,88.1,501.366,87.835,500.739,87.835Z" transform="translate(-193.8 -62.311)" fill="#fff"/>
  <path id="Path_313" data-name="Path 313" d="M608.083,97.756c5.034,0,10.891-.2,14.825-.517.911-.073,1.749.269,1.859.754.294,1.309.708,3.026,1.114,4.3.152.476-.454.921-1.351,1-4.127.364-11.038.4-17.119.4H576.377c-16.063,0-23.465-2.588-23.465-11.781V70.47c0-.48-.734-.87-1.639-.87h0c-.906,0-1.64-.39-1.64-.87V64.8c0-.48.734-.87,1.64-.87H620.32c.906,0,1.64.39,1.64.87v3.927c0,.481-.734.87-1.64.87H566.494c-.905,0-1.639.39-1.639.87V92.357c0,3.927,2.1,5.4,10.512,5.4Zm-39.4-14.1H589.37c.906,0,1.64.39,1.64.87V95.191c0,.481-.734.87-1.64.87H568.682c-.906,0-1.64-.389-1.64-.87V84.525C567.042,84.046,567.776,83.656,568.682,83.656Zm39.191-1.339H577.007c-.905,0-1.64-.39-1.64-.87V72.076c0-.481.735-.87,1.64-.87h30.866c.905,0,1.639.389,1.639.87v9.371C609.512,81.927,608.778,82.317,607.873,82.317Zm-29.437,9.5h.59c.906,0,1.64-.39,1.64-.87V88.765c0-.481-.734-.87-1.64-.87h-.59c-.905,0-1.639.39-1.639.87v2.186C576.8,91.432,577.531,91.821,578.437,91.821Zm17.326-16.51h-7.4c-.905,0-1.639.39-1.639.87V77.3c0,.481.734.87,1.639.87h7.4c.906,0,1.64-.39,1.64-.87V76.182C597.4,75.7,596.668,75.311,595.762,75.311ZM616.62,96.06H595.342c-.906,0-1.64-.389-1.64-.87V84.525c0-.48.734-.87,1.64-.87H616.62c.906,0,1.64.39,1.64.87V95.191C618.26,95.671,617.525,96.06,616.62,96.06Zm-10.513-8.166h-.841c-.906,0-1.64.39-1.64.87v2.186c0,.481.734.87,1.64.87h.841c.906,0,1.64-.39,1.64-.87V88.765C607.746,88.284,607.012,87.895,606.106,87.895Z" transform="translate(-219.772 -62.684)" fill="#fff"/>
</svg>
