<svg xmlns="http://www.w3.org/2000/svg" width="104.736" height="46.431" viewBox="0 0 104.736 46.431">
  <g id="Group_121" data-name="Group 121" transform="translate(-462.965 -100.268)">
    <g id="Group_8" data-name="Group 8" transform="translate(463.465 100.768)">
      <g id="Group_6" data-name="Group 6">
        <path id="Path_5" data-name="Path 5" d="M562.366,116.537c-.052-.176-.1-.343-.166-.519C562.262,116.184,562.314,116.361,562.366,116.537Z" transform="translate(-459.718 -100.189)" fill="#524c83"/>
        <path id="Path_6" data-name="Path 6" d="M561.66,114.628c.125.259.228.529.343.81C561.888,115.157,561.784,114.887,561.66,114.628Z" transform="translate(-459.739 -100.242)" fill="#524c83"/>
        <path id="Path_7" data-name="Path 7" d="M545.87,133.126c-1.287,1.764-3,3.1-4.826,3.124a4.552,4.552,0,0,1-4.193-3.8l.01-.01a12.632,12.632,0,0,0,1.713-2.7,23.483,23.483,0,0,0,.934-2.232c.093-.249.187-.509.27-.758a26.978,26.978,0,0,0,1.785-11.635,11.2,11.2,0,0,0-.779-3.186v-.01c.135-.2.291-.394.436-.571.083-.083.166-.166.239-.249q.249-.249.5-.467c0-.01,0-.01.01-.01a5.585,5.585,0,0,1,.8-.56l.01-.01a4.245,4.245,0,0,1,4.661.062,4.847,4.847,0,0,1,.82.727c.01,0,0,.01,0,.01a6.481,6.481,0,0,1,.685.945,8.093,8.093,0,0,1,.561,6.767c.249-.612.529-1.225.83-1.806,1.37-2.626,3.2-4.837,5.449-5.678.156-.062.322-.114.477-.166,2.906-.83,5.024,1,6.342,3.913.125.259.228.529.343.81.073.208.156.415.218.633.062.176.114.343.166.519,1.308,4.339,1.246,10.016-.176,13.556-1.588,3.955-4.982,6.612-8.293,5.989s-6.124-4.826-5.906-9.321A30.368,30.368,0,0,1,545.87,133.126Z" transform="translate(-460.68 -100.441)" fill="#e4e4e4"/>
        <path id="Path_8" data-name="Path 8" d="M541.238,100.8a1.733,1.733,0,0,0-1.038.176,1.666,1.666,0,0,1,1.038-.187,1.431,1.431,0,0,1,.3.083A1.418,1.418,0,0,0,541.238,100.8Z" transform="translate(-460.553 -100.768)" fill="#524c83"/>
        <path id="Path_9" data-name="Path 9" d="M540.039,101.068a3.949,3.949,0,0,0-.519.384A2.686,2.686,0,0,1,540.039,101.068Z" transform="translate(-460.579 -100.757)" fill="#524c83"/>
        <path id="Path_10" data-name="Path 10" d="M539.444,126.848a23.509,23.509,0,0,1-.934,2.232A23.509,23.509,0,0,0,539.444,126.848Z" transform="translate(-460.617 -99.778)" fill="#524c83"/>
        <path id="Path_11" data-name="Path 11" d="M542.495,101.37c3.186,2.616-1.048,5.553-3.612,6.186-5.439,1.329-1.661-3.705.342-5.7.156-.145.3-.28.426-.394a3.945,3.945,0,0,1,.519-.384c.052-.031.125-.062.187-.1a1.733,1.733,0,0,1,1.038-.176,1.416,1.416,0,0,1,.3.073A2.791,2.791,0,0,1,542.495,101.37Z" transform="translate(-460.71 -100.768)" fill="#e4e4e4"/>
        <path id="Path_12" data-name="Path 12" d="M537.348,131.064A12.9,12.9,0,0,0,538.573,129a12.635,12.635,0,0,1-1.713,2.7C537.036,131.489,537.192,131.281,537.348,131.064Z" transform="translate(-460.68 -99.697)" fill="#524c83"/>
        <path id="Path_13" data-name="Path 13" d="M537.348,130.988c-.156.218-.311.426-.488.633l-.01.01v-.01C537.026,131.414,537.193,131.206,537.348,130.988Z" transform="translate(-460.68 -99.621)" fill="#524c83"/>
        <path id="Path_14" data-name="Path 14" d="M541.2,111.97a11.2,11.2,0,0,1,.778,3.187,26.979,26.979,0,0,1-1.785,11.635c-.083.249-.176.509-.27.758a23.515,23.515,0,0,1-.934,2.232,12.9,12.9,0,0,1-1.225,2.066c-.156.218-.322.426-.5.633v.01a.894.894,0,0,1-.083.1,7.249,7.249,0,0,1-5.75,2.709,4.389,4.389,0,0,1-3.384-1.816,4.746,4.746,0,0,1-.457-.727c-.073-.125-.135-.259-.2-.394a8.429,8.429,0,0,1-.54-1.733,16.053,16.053,0,0,0,1.775-5.428c.021-.208.042-.426.052-.644a12.272,12.272,0,0,0-.073-2.138c-.021-.156-.052-.3-.083-.457v-.021c-.031-.156-.062-.311-.093-.457v-.021c-.042-.156-.083-.311-.125-.457V121c-.041-.156-.093-.3-.145-.457,0-.01,0-.01-.01-.021a9.507,9.507,0,0,0-.612-1.412c-.062-.1-.114-.208-.176-.311l-.01-.01a7.468,7.468,0,0,0-1.526-1.806c.654-.4,1.308-.82,1.962-1.266a23.19,23.19,0,0,0,2.325-1.764,10.86,10.86,0,0,0,2.543-3.083,5.873,5.873,0,0,0,.561-1.432l.052.01a5.439,5.439,0,0,1,4.775-.841,4.377,4.377,0,0,1,1.391.841,5.507,5.507,0,0,1,.55.55,6.609,6.609,0,0,1,1.214,1.962Z" transform="translate(-461.099 -100.48)" fill="#e4e4e4"/>
        <path id="Path_15" data-name="Path 15" d="M532.933,109.409a1.409,1.409,0,0,0,.062-.3,3.028,3.028,0,0,1-.052.3,1.87,1.87,0,0,1-.093.322C532.881,109.627,532.912,109.513,532.933,109.409Z" transform="translate(-460.832 -100.452)" fill="#524c83"/>
        <path id="Path_16" data-name="Path 16" d="M532.994,108.234a1.974,1.974,0,0,1,.031.259c-.01-.083-.031-.166-.042-.259a2.955,2.955,0,0,0-.374-1A2.768,2.768,0,0,1,532.994,108.234Z" transform="translate(-460.841 -100.523)" fill="#524c83"/>
        <path id="Path_17" data-name="Path 17" d="M532.861,109.708a4.317,4.317,0,0,1-.291.768A6.851,6.851,0,0,0,532.861,109.708Z" transform="translate(-460.843 -100.429)" fill="#524c83"/>
        <path id="Path_18" data-name="Path 18" d="M532.616,107.248a3.62,3.62,0,0,0-.436-.55A2.423,2.423,0,0,1,532.616,107.248Z" transform="translate(-460.858 -100.543)" fill="#524c83"/>
        <path id="Path_19" data-name="Path 19" d="M531.288,106.027a4.307,4.307,0,0,0-.488-.249A4.307,4.307,0,0,1,531.288,106.027Z" transform="translate(-460.91 -100.578)" fill="#524c83"/>
        <path id="Path_20" data-name="Path 20" d="M530.592,105.7a4.543,4.543,0,0,0-.592-.218A4.048,4.048,0,0,1,530.592,105.7Z" transform="translate(-460.94 -100.589)" fill="#524c83"/>
        <path id="Path_21" data-name="Path 21" d="M530.01,105.483a4.765,4.765,0,0,0-.55-.145A4.765,4.765,0,0,1,530.01,105.483Z" transform="translate(-460.961 -100.595)" fill="#524c83"/>
        <path id="Path_22" data-name="Path 22" d="M528.552,124.69a11.421,11.421,0,0,0-.01-2.792l.01.01a12.272,12.272,0,0,1,.073,2.138c-.021.218-.041.436-.062.644a15.066,15.066,0,0,1-1.162,4.121A14.687,14.687,0,0,0,528.552,124.69Z" transform="translate(-461.039 -99.966)" fill="#524c83"/>
        <path id="Path_23" data-name="Path 23" d="M528.43,121.468c.031.156.062.3.083.457l-.01-.01C528.482,121.769,528.451,121.613,528.43,121.468Z" transform="translate(-461 -99.983)" fill="#524c83"/>
        <path id="Path_24" data-name="Path 24" d="M528.34,121.008c.031.145.062.3.093.457a.01.01,0,0,0-.01-.01C528.4,121.3,528.371,121.153,528.34,121.008Z" transform="translate(-461.003 -100)" fill="#524c83"/>
        <path id="Path_25" data-name="Path 25" d="M528.43,121.448v.021c0-.01-.01-.021-.01-.031A.01.01,0,0,1,528.43,121.448Z" transform="translate(-461 -99.984)" fill="#524c83"/>
        <path id="Path_26" data-name="Path 26" d="M528.22,120.548c.042.145.083.3.125.457l-.01-.01C528.293,120.839,528.262,120.693,528.22,120.548Z" transform="translate(-461.008 -100.017)" fill="#524c83"/>
        <path id="Path_27" data-name="Path 27" d="M528.34,120.988v.021a.038.038,0,0,1-.01-.031Z" transform="translate(-461.004 -100.001)" fill="#524c83"/>
        <path id="Path_28" data-name="Path 28" d="M528.08,120.1c.052.156.1.3.145.457l-.01-.01C528.173,120.389,528.132,120.243,528.08,120.1Z" transform="translate(-461.013 -100.035)" fill="#524c83"/>
        <path id="Path_29" data-name="Path 29" d="M528.22,120.538v.01a.036.036,0,0,0-.01-.021Z" transform="translate(-461.008 -100.018)" fill="#524c83"/>
        <path id="Path_30" data-name="Path 30" d="M528.07,120.078c.01.01.01.01.01.021A.032.032,0,0,0,528.07,120.078Z" transform="translate(-461.014 -100.035)" fill="#524c83"/>
        <path id="Path_31" data-name="Path 31" d="M526.839,129.866v.01c-.259.477-.519.955-.8,1.422.27-.467.54-.945.789-1.432.218-.426.436-.861.623-1.308C527.265,129,527.057,129.44,526.839,129.866Z" transform="translate(-461.091 -99.714)" fill="#524c83"/>
        <path id="Path_32" data-name="Path 32" d="M526.1,131.2c-.28.477-.571.955-.882,1.412-.228.343-.478.7-.747,1.038.259-.342.5-.7.737-1.038C525.518,132.153,525.809,131.675,526.1,131.2Z" transform="translate(-461.15 -99.613)" fill="#524c83"/>
        <path id="Path_33" data-name="Path 33" d="M517.371,108.689c.477-.374.976-.727,1.484-1.059l.01-.01A17.232,17.232,0,0,1,523,105.752a15.484,15.484,0,0,1,6.166-.56c.124.01.249.031.374.052a5.5,5.5,0,0,1,.571.1,4.763,4.763,0,0,1,.55.145h.01a4.538,4.538,0,0,1,.592.218,1.635,1.635,0,0,1,.239.093,5.1,5.1,0,0,1,1.432.955,3.627,3.627,0,0,1,.436.55l.01.01a2.955,2.955,0,0,1,.374,1c.01.093.031.176.041.259a3.742,3.742,0,0,1-.021.685,1.409,1.409,0,0,1-.062.3c-.021.1-.052.218-.083.322a6.839,6.839,0,0,1-.291.768c-.052.114-.114.228-.176.343a11.493,11.493,0,0,1-2.533,3.083,23.183,23.183,0,0,1-2.325,1.765c-.654.436-1.318.851-1.972,1.256l.01.01a7.471,7.471,0,0,1,1.526,1.806v.01l.187.311a9.494,9.494,0,0,1,.612,1.412.032.032,0,0,1,.01.021c.052.145.093.291.135.446a.036.036,0,0,1,.01.021c.042.145.073.291.114.446a.038.038,0,0,0,.01.031c.031.145.062.291.083.446,0,.01.01.021.01.031.021.145.052.3.073.446a11.43,11.43,0,0,1,.01,2.792,14.687,14.687,0,0,1-1.152,4.121c-.187.446-.4.882-.623,1.308-.249.488-.519.965-.789,1.432-.291.477-.581.955-.893,1.412-.239.343-.478.7-.737,1.038a5.8,5.8,0,0,1-2.948,2.242,4.734,4.734,0,0,1-4.328-1.246,5.7,5.7,0,0,1-.747-.841,9.284,9.284,0,0,1-1.4-3.093,44.629,44.629,0,0,0,4.422-13.255c0-.021,0-.031.01-.042.031-.218.062-.426.093-.633a4.436,4.436,0,0,0-.1-2.273c-1.131-2.844-6.456-.374-7.5,1.432a20.975,20.975,0,0,0,2.211-4.712,8.532,8.532,0,0,0,.208-.924v-.01c.187-.239.384-.467.581-.7s.394-.457.612-.675C516.458,109.489,516.9,109.084,517.371,108.689Z" transform="translate(-461.607 -100.604)" fill="#e4e4e4"/>
        <path id="Path_34" data-name="Path 34" d="M513.585,105.832a2.185,2.185,0,0,0-.934-.062,10.491,10.491,0,0,0-6.031,2.958,10.457,10.457,0,0,1,6.031-2.979,2.188,2.188,0,0,1,.934.073,2.08,2.08,0,0,1,1.111,1.235,4.6,4.6,0,0,1,.228.633,4.341,4.341,0,0,0-.228-.612A2.132,2.132,0,0,0,513.585,105.832Z" transform="translate(-461.828 -100.58)" fill="lime"/>
        <path id="Path_35" data-name="Path 35" d="M506.645,108.618c-.239.228-.467.457-.7.7,0-.01,0-.01.01-.021A8.4,8.4,0,0,1,506.645,108.618Z" transform="translate(-461.853 -100.47)" fill="lime"/>
        <path id="Path_36" data-name="Path 36" d="M502.134,132.228c-.114.218-.239.426-.363.633l-.01-.01A6.18,6.18,0,0,0,502.134,132.228Z" transform="translate(-462.012 -99.574)" fill="#f9ae3b"/>
        <path id="Path_37" data-name="Path 37" d="M501.71,120.7c.073-.239.135-.477.187-.727C501.845,120.227,501.783,120.466,501.71,120.7Z" transform="translate(-462.014 -100.039)" fill="#f9ae3b"/>
        <path id="Path_38" data-name="Path 38" d="M501.986,120.678v.021c-1.121,3.726-4.224,6.415-7.349,8.646-.062.041-.135.083-.2.125C497.627,127.207,500.844,124.487,501.986,120.678Z" transform="translate(-462.29 -100.013)" fill="#f9ae3b"/>
        <path id="Path_39" data-name="Path 39" d="M503.385,130.1a3.92,3.92,0,0,1-.426,2.937,6.167,6.167,0,0,1-.374.623l.01.01a.01.01,0,0,0-.01.01,8.833,8.833,0,0,1-.571.778,17.516,17.516,0,0,1-21.631,4.349l-.384-.228v-.01a53.019,53.019,0,0,0,6.29-14.075,44.425,44.425,0,0,0,2.045-9.435h.021a17.905,17.905,0,0,1,2.969-2.034,17.455,17.455,0,0,1,5.657-1.91,5.183,5.183,0,0,1,2.616.135,3.47,3.47,0,0,1,1.079.685,6.182,6.182,0,0,1,1.256,1.775,10.552,10.552,0,0,1,.592,1.505c.052.166.093.342.135.519a10.356,10.356,0,0,1,.27,3.041,2.41,2.41,0,0,1-.031.384c-.01.156-.031.311-.052.467-.031.239-.073.467-.125.7-.052.249-.114.488-.187.727-1.142,3.809-4.359,6.529-7.546,8.791.062-.042.135-.083.2-.125-.073.052-.135.093-.208.145a10.752,10.752,0,0,1,4.442-1.972A3.689,3.689,0,0,1,503.385,130.1Z" transform="translate(-462.838 -100.379)" fill="#e4e4e4"/>
        <path id="Path_40" data-name="Path 40" d="M516.167,131.686q-.483.919-1.027,1.775a5.767,5.767,0,0,1-2.678,2.45,3.082,3.082,0,0,1-3.384-.664,4.345,4.345,0,0,1-.861-2,15.331,15.331,0,0,1,.187-6.446,23.475,23.475,0,0,1-4.09,7.016c-.664.789-1.733,1.246-2.232.083l-.042-.031c.125-.208.249-.415.363-.633a3.92,3.92,0,0,0,.426-2.937v-.021a3.682,3.682,0,0,0-3.965-2.211,10.159,10.159,0,0,0-4.235,1.848c3.124-2.232,6.228-4.92,7.349-8.646v-.021c.073-.239.135-.477.187-.727.052-.228.093-.457.125-.7.021-.156.042-.311.052-.467a2.389,2.389,0,0,0,.031-.384,10.146,10.146,0,0,0-.259-3.062,29.11,29.11,0,0,1,4.266-6.487c.228-.239.457-.467.7-.7a10.491,10.491,0,0,1,6.031-2.958,2.184,2.184,0,0,1,.934.062,2.132,2.132,0,0,1,1.111,1.246,4.341,4.341,0,0,1,.228.612,7.548,7.548,0,0,1,.135,3.571v.01a8.548,8.548,0,0,1-.208.924,20.978,20.978,0,0,1-2.211,4.712c1.048-1.806,6.373-4.276,7.5-1.432a4.435,4.435,0,0,1,.1,2.273c-.031.208-.062.415-.093.633-.01.01-.01.021-.01.042a44.628,44.628,0,0,1-4.422,13.255A.01.01,0,0,1,516.167,131.686Z" transform="translate(-462.283 -100.579)" fill="#e4e4e4"/>
        <path id="Path_41" data-name="Path 41" d="M485.547,108.319c3.01.27,3.664,3.353,3.415,6.83v.01a44.425,44.425,0,0,1-2.045,9.435,53.019,53.019,0,0,1-6.29,14.075v.01a28.339,28.339,0,0,1-3.84,4.567,10.056,10.056,0,0,1-.934.81c-.1.083-.218.166-.332.249a9.707,9.707,0,0,1-1.038.654,7.2,7.2,0,0,1-3.436.955,5.574,5.574,0,0,1-1.235-.145,6.741,6.741,0,0,1-3.01-1.681,5.759,5.759,0,0,1-.509-.5,13.262,13.262,0,0,1-.934-1.09,8.561,8.561,0,0,1-1.827-3.913,6.5,6.5,0,0,1,.031-2.055,9.989,9.989,0,0,1,.685-2.221c.156-.353.332-.7.519-1.038a29.644,29.644,0,0,1,3.062-4.4c.9-1.1,1.837-2.159,2.761-3.259h-.021a3.744,3.744,0,0,0-.571-.125,5.494,5.494,0,0,1-.56-.135,6.914,6.914,0,0,1-1.91-.976c0-.01-.01,0-.01,0a6.946,6.946,0,0,1-2.2-2.771,7.294,7.294,0,0,1,.021-5.719,6.44,6.44,0,0,1,1.111-1.723,5.161,5.161,0,0,1,1.609-1.194c1.578-.737,3.768-.291,5.761.457.311.125.623.249.924.374s.612.259.9.4.55.27.81.4c.01-.01.01,0,.01,0,.249.135.488.259.716.384v-.01c.01,0,.01.01.021.01v-.01a42.479,42.479,0,0,1,2.616-3.519C481.406,109.637,483.326,108.121,485.547,108.319Z" transform="translate(-463.465 -100.482)" fill="#e4e4e4"/>
        <path id="Path_42" data-name="Path 42" d="M476.68,114.867a43,43,0,0,1,2.636-3.519,42.476,42.476,0,0,0-2.616,3.519v.01C476.69,114.877,476.69,114.867,476.68,114.867Z" transform="translate(-462.964 -100.367)" fill="#ff0"/>
        <path id="Path_43" data-name="Path 43" d="M476.334,141.968v.01a9.956,9.956,0,0,1-.934.8A10.052,10.052,0,0,0,476.334,141.968Z" transform="translate(-463.012 -99.205)" fill="#ff0"/>
        <path id="Path_44" data-name="Path 44" d="M474.08,143.642a9.7,9.7,0,0,0,1.038-.654A9.7,9.7,0,0,1,474.08,143.642Z" transform="translate(-463.062 -99.166)" fill="#ff0"/>
        <path id="Path_45" data-name="Path 45" d="M470.41,124.978h.021c-.924,1.1-1.858,2.159-2.761,3.259C468.563,127.137,469.5,126.078,470.41,124.978Z" transform="translate(-463.306 -99.849)" fill="#ff0"/>
        <path id="Path_46" data-name="Path 46" d="M469.58,144.4a5.573,5.573,0,0,0,1.235.145A5.02,5.02,0,0,1,469.58,144.4Z" transform="translate(-463.233 -99.112)" fill="#ff0"/>
        <path id="Path_47" data-name="Path 47" d="M469.29,124.764a5.483,5.483,0,0,0,.561.135,5.613,5.613,0,0,1-.571-.125,6.749,6.749,0,0,1-1.9-.986A6.914,6.914,0,0,0,469.29,124.764Z" transform="translate(-463.317 -99.895)" fill="#ff0"/>
        <path id="Path_48" data-name="Path 48" d="M466.19,142.3a5.772,5.772,0,0,0,.509.5A5.772,5.772,0,0,1,466.19,142.3Z" transform="translate(-463.362 -99.192)" fill="#ff0"/>
        <path id="Path_49" data-name="Path 49" d="M465.261,121.39a7.3,7.3,0,0,1,.01-5.719,6.193,6.193,0,0,1,1.131-1.723,6.44,6.44,0,0,0-1.111,1.723,7.3,7.3,0,0,0-.021,5.719,6.946,6.946,0,0,0,2.2,2.771A6.729,6.729,0,0,1,465.261,121.39Z" transform="translate(-463.419 -100.268)" fill="#ff0"/>
        <path id="Path_50" data-name="Path 50" d="M464.245,133.358a9.989,9.989,0,0,0-.685,2.221A9.007,9.007,0,0,1,464.245,133.358Z" transform="translate(-463.462 -99.531)" fill="#ff0"/>
      </g>
      <g id="Group_7" data-name="Group 7">
        <path id="Path_51" data-name="Path 51" d="M547.84,110.8a6.479,6.479,0,0,1,.685.945" transform="translate(-460.263 -100.387)" fill="none" stroke="#8189c3" stroke-miterlimit="10" stroke-width="1"/>
        <path id="Path_52" data-name="Path 52" d="M542.56,110.052a4.244,4.244,0,0,1,4.66.062,4.843,4.843,0,0,1,.82.727" transform="translate(-460.464 -100.441)" fill="none" stroke="#8189c3" stroke-miterlimit="10" stroke-width="1"/>
        <path id="Path_53" data-name="Path 53" d="M541.78,110.6a5.588,5.588,0,0,1,.8-.561" transform="translate(-460.493 -100.416)" fill="none" stroke="#8189c3" stroke-miterlimit="10" stroke-width="1"/>
        <path id="Path_54" data-name="Path 54" d="M541.06,111.3c.083-.083.166-.166.239-.249q.249-.249.5-.467" transform="translate(-460.521 -100.395)" fill="none" stroke="#8189c3" stroke-miterlimit="10" stroke-width="1"/>
        <path id="Path_55" data-name="Path 55" d="M562.2,116.018c.062.166.114.343.166.519" transform="translate(-459.718 -100.189)" fill="none" stroke="#8189c3" stroke-miterlimit="10" stroke-width="1"/>
        <path id="Path_56" data-name="Path 56" d="M561.66,114.628c.125.259.228.529.343.81" transform="translate(-459.739 -100.242)" fill="none" stroke="#8189c3" stroke-miterlimit="10" stroke-width="1"/>
        <path id="Path_57" data-name="Path 57" d="M549.84,116.7c1.37-2.626,3.2-4.837,5.449-5.678.156-.062.322-.114.477-.166" transform="translate(-460.187 -100.385)" fill="none" stroke="#8189c3" stroke-miterlimit="10" stroke-width="1"/>
        <path id="Path_58" data-name="Path 58" d="M540.2,100.976a1.666,1.666,0,0,1,1.038-.187,1.431,1.431,0,0,1,.3.083" transform="translate(-460.553 -100.768)" fill="none" stroke="#8189c3" stroke-miterlimit="10" stroke-width="1"/>
        <path id="Path_59" data-name="Path 59" d="M539.52,101.452a2.686,2.686,0,0,1,.519-.384" transform="translate(-460.579 -100.757)" fill="none" stroke="#8189c3" stroke-miterlimit="10" stroke-width="1"/>
        <path id="Path_60" data-name="Path 60" d="M537.6,108.6a4.375,4.375,0,0,1,1.391.841,5.5,5.5,0,0,1,.55.55" transform="translate(-460.652 -100.471)" fill="none" stroke="#8189c3" stroke-miterlimit="10" stroke-width="1"/>
        <path id="Path_61" data-name="Path 61" d="M529.96,113.913a10.861,10.861,0,0,0,2.543-3.083,5.865,5.865,0,0,0,.56-1.432l.052.01" transform="translate(-460.942 -100.441)" fill="none" stroke="#8189c3" stroke-miterlimit="10" stroke-width="1"/>
        <path id="Path_62" data-name="Path 62" d="M525.83,116.714c.654-.4,1.308-.82,1.962-1.266" transform="translate(-461.099 -100.211)" fill="none" stroke="#8189c3" stroke-miterlimit="10" stroke-width="1"/>
        <path id="Path_63" data-name="Path 63" d="M527.31,118.418l-.01-.01" transform="translate(-461.043 -100.099)" fill="none" stroke="#8189c3" stroke-miterlimit="10" stroke-width="1"/>
        <path id="Path_64" data-name="Path 64" d="M527.36,131.773a8.426,8.426,0,0,1-.54-1.733,16.053,16.053,0,0,0,1.775-5.428c.021-.208.042-.426.052-.644" transform="translate(-461.061 -99.888)" fill="none" stroke="#8189c3" stroke-miterlimit="10" stroke-width="1"/>
        <path id="Path_65" data-name="Path 65" d="M527.987,132.595a4.738,4.738,0,0,1-.457-.727" transform="translate(-461.034 -99.588)" fill="none" stroke="#8189c3" stroke-miterlimit="10" stroke-width="1"/>
        <path id="Path_66" data-name="Path 66" d="M539.507,126.848a23.508,23.508,0,0,1-.934,2.232,12.634,12.634,0,0,1-1.713,2.7" transform="translate(-460.68 -99.778)" fill="none" stroke="#8189c3" stroke-miterlimit="10" stroke-width="1"/>
        <path id="Path_67" data-name="Path 67" d="M532.18,106.7a2.423,2.423,0,0,1,.436.55" transform="translate(-460.858 -100.543)" fill="none" stroke="#8189c3" stroke-miterlimit="10" stroke-width="1"/>
        <path id="Path_68" data-name="Path 68" d="M530.8,105.778a4.307,4.307,0,0,1,.488.249" transform="translate(-460.91 -100.578)" fill="none" stroke="#8189c3" stroke-miterlimit="10" stroke-width="1"/>
        <path id="Path_69" data-name="Path 69" d="M530,105.478a4.048,4.048,0,0,1,.592.218" transform="translate(-460.94 -100.589)" fill="none" stroke="#8189c3" stroke-miterlimit="10" stroke-width="1"/>
        <path id="Path_70" data-name="Path 70" d="M518.63,107.62a17.23,17.23,0,0,1,4.131-1.868,15.484,15.484,0,0,1,6.166-.56c.125.01.249.031.374.052a5.5,5.5,0,0,1,.571.1,4.76,4.76,0,0,1,.55.145" transform="translate(-461.372 -100.604)" fill="none" stroke="#8189c3" stroke-miterlimit="10" stroke-width="1"/>
        <path id="Path_71" data-name="Path 71" d="M515.9,109.821c.426-.426.872-.83,1.339-1.225.477-.374.976-.727,1.484-1.059" transform="translate(-461.475 -100.511)" fill="none" stroke="#8189c3" stroke-miterlimit="10" stroke-width="1"/>
        <path id="Path_72" data-name="Path 72" d="M514.75,111.083c.187-.239.384-.467.581-.7" transform="translate(-461.519 -100.403)" fill="none" stroke="#8189c3" stroke-miterlimit="10" stroke-width="1"/>
        <path id="Path_73" data-name="Path 73" d="M519.65,117.96c0-.021,0-.031.01-.042" transform="translate(-461.333 -100.117)" fill="none" stroke="#8189c3" stroke-miterlimit="10" stroke-width="1"/>
        <path id="Path_74" data-name="Path 74" d="M516.791,133.821a9.285,9.285,0,0,1-1.4-3.093" transform="translate(-461.495 -99.631)" fill="none" stroke="#8189c3" stroke-miterlimit="10" stroke-width="1"/>
        <path id="Path_75" data-name="Path 75" d="M526.9,129.828c-.26.477-.519.955-.8,1.422s-.571.955-.882,1.412c-.228.343-.478.7-.747,1.038" transform="translate(-461.15 -99.665)" fill="none" stroke="#8189c3" stroke-miterlimit="10" stroke-width="1"/>
        <path id="Path_76" data-name="Path 76" d="M528.118,120.078c.01.01.01.01.01.021.052.156.1.3.145.457v.01c.042.145.083.3.125.457v.021c.031.145.062.3.093.457v.021c.031.156.062.3.083.457a12.29,12.29,0,0,1,.073,2.138c-.021.218-.042.436-.062.644a15.067,15.067,0,0,1-1.162,4.121c-.187.446-.395.882-.613,1.308" transform="translate(-461.061 -100.035)" fill="none" stroke="#8189c3" stroke-miterlimit="10" stroke-width="1"/>
        <path id="Path_77" data-name="Path 77" d="M527.3,118.418l.187.311" transform="translate(-461.043 -100.098)" fill="none" stroke="#8189c3" stroke-miterlimit="10" stroke-width="1"/>
        <path id="Path_78" data-name="Path 78" d="M533.006,109.108c-.01.1-.031.2-.052.3a1.887,1.887,0,0,1-.093.322,4.316,4.316,0,0,1-.291.768" transform="translate(-460.843 -100.452)" fill="none" stroke="#8189c3" stroke-miterlimit="10" stroke-width="1"/>
        <path id="Path_79" data-name="Path 79" d="M532.61,107.238a2.768,2.768,0,0,1,.384,1,1.974,1.974,0,0,1,.031.259" transform="translate(-460.841 -100.523)" fill="none" stroke="#8189c3" stroke-miterlimit="10" stroke-width="1"/>
        <path id="Path_80" data-name="Path 80" d="M505.95,109.423c0-.01,0-.01.01-.021a8.4,8.4,0,0,1,.685-.675,10.457,10.457,0,0,1,6.031-2.979,2.187,2.187,0,0,1,.934.073,2.08,2.08,0,0,1,1.111,1.235,4.626,4.626,0,0,1,.228.633" transform="translate(-461.853 -100.58)" fill="none" stroke="#8189c3" stroke-miterlimit="10" stroke-width="1"/>
        <path id="Path_81" data-name="Path 81" d="M502.1,118.6a10.147,10.147,0,0,0-.259-3.062" transform="translate(-462.009 -100.208)" fill="none" stroke="#8189c3" stroke-miterlimit="10" stroke-width="1"/>
        <path id="Path_82" data-name="Path 82" d="M502.01,119.325c.021-.156.042-.311.052-.467" transform="translate(-462.003 -100.082)" fill="none" stroke="#8189c3" stroke-miterlimit="10" stroke-width="1"/>
        <path id="Path_83" data-name="Path 83" d="M502.83,129.48v-.021a3.682,3.682,0,0,0-3.965-2.211,10.159,10.159,0,0,0-4.235,1.848" transform="translate(-462.283 -99.764)" fill="none" stroke="#8189c3" stroke-miterlimit="10" stroke-width="1"/>
        <line id="Line_5" data-name="Line 5" x1="0.042" y1="0.031" transform="translate(39.758 33.286)" fill="none" stroke="#8189c3" stroke-miterlimit="10" stroke-width="1"/>
        <path id="Path_84" data-name="Path 84" d="M501.13,113.608a10.545,10.545,0,0,1,.592,1.505" transform="translate(-462.036 -100.281)" fill="none" stroke="#8189c3" stroke-miterlimit="10" stroke-width="1"/>
        <path id="Path_85" data-name="Path 85" d="M496.36,111.112a5.183,5.183,0,0,1,2.616.135,3.47,3.47,0,0,1,1.08.685" transform="translate(-462.217 -100.379)" fill="none" stroke="#8189c3" stroke-miterlimit="10" stroke-width="1"/>
        <path id="Path_86" data-name="Path 86" d="M488.03,115.019h.021a17.912,17.912,0,0,1,2.969-2.034,17.171,17.171,0,0,1,2.18-1" transform="translate(-462.533 -100.342)" fill="none" stroke="#8189c3" stroke-miterlimit="10" stroke-width="1"/>
        <path id="Path_87" data-name="Path 87" d="M475.99,114.493c.249.135.488.259.716.384v-.01a43.023,43.023,0,0,1,2.636-3.519" transform="translate(-462.99 -100.367)" fill="none" stroke="#8189c3" stroke-miterlimit="10" stroke-width="1"/>
        <path id="Path_88" data-name="Path 88" d="M475.2,113.988q.42.2.81.4" transform="translate(-463.02 -100.266)" fill="none" stroke="#8189c3" stroke-miterlimit="10" stroke-width="1"/>
        <path id="Path_89" data-name="Path 89" d="M473.44,113.238c.311.125.623.249.924.374" transform="translate(-463.087 -100.295)" fill="none" stroke="#8189c3" stroke-miterlimit="10" stroke-width="1"/>
        <path id="Path_90" data-name="Path 90" d="M467.472,124.161a6.729,6.729,0,0,1-2.211-2.771,7.3,7.3,0,0,1,.01-5.719,6.193,6.193,0,0,1,1.131-1.723" transform="translate(-463.419 -100.268)" fill="none" stroke="#8189c3" stroke-miterlimit="10" stroke-width="1"/>
        <path id="Path_91" data-name="Path 91" d="M469.85,124.9a5.613,5.613,0,0,1-.571-.125,6.749,6.749,0,0,1-1.9-.986" transform="translate(-463.317 -99.895)" fill="none" stroke="#8189c3" stroke-miterlimit="10" stroke-width="1"/>
        <path id="Path_92" data-name="Path 92" d="M467.67,128.237c.893-1.1,1.827-2.159,2.74-3.259" transform="translate(-463.306 -99.849)" fill="none" stroke="#8189c3" stroke-miterlimit="10" stroke-width="1"/>
        <path id="Path_93" data-name="Path 93" d="M463.56,135.579a9.007,9.007,0,0,1,.685-2.221" transform="translate(-463.462 -99.531)" fill="none" stroke="#8189c3" stroke-miterlimit="10" stroke-width="1"/>
        <path id="Path_94" data-name="Path 94" d="M466.7,142.8a5.772,5.772,0,0,1-.509-.5" transform="translate(-463.362 -99.192)" fill="none" stroke="#8189c3" stroke-miterlimit="10" stroke-width="1"/>
        <path id="Path_95" data-name="Path 95" d="M470.815,144.543a5.02,5.02,0,0,1-1.235-.145" transform="translate(-463.233 -99.112)" fill="none" stroke="#8189c3" stroke-miterlimit="10" stroke-width="1"/>
        <path id="Path_96" data-name="Path 96" d="M475.118,142.988a9.7,9.7,0,0,1-1.038.654" transform="translate(-463.062 -99.166)" fill="none" stroke="#8189c3" stroke-miterlimit="10" stroke-width="1"/>
        <path id="Path_97" data-name="Path 97" d="M476.334,141.968v.01a9.956,9.956,0,0,1-.934.8" transform="translate(-463.012 -99.205)" fill="none" stroke="#8189c3" stroke-miterlimit="10" stroke-width="1"/>
        <path id="Path_98" data-name="Path 98" d="M488.962,115.159v-.01c.249-3.477-.4-6.56-3.415-6.83-2.221-.2-4.141,1.318-5.729,3.145a42.479,42.479,0,0,0-2.616,3.519v.01c-.01,0-.01-.01-.021-.01q-.327-.187-.716-.374s0-.01-.01,0q-.389-.2-.81-.4-.436-.218-.9-.4c-.3-.135-.612-.259-.924-.374-1.993-.747-4.183-1.194-5.761-.457a5.161,5.161,0,0,0-1.609,1.194,6.44,6.44,0,0,0-1.111,1.723,7.294,7.294,0,0,0-.021,5.719,6.946,6.946,0,0,0,2.2,2.771s.01-.01.01,0a6.914,6.914,0,0,0,1.91.976,5.494,5.494,0,0,0,.56.135,3.744,3.744,0,0,1,.571.125h.021c-.924,1.1-1.858,2.159-2.761,3.259a29.644,29.644,0,0,0-3.062,4.4c-.187.343-.363.685-.519,1.038a9.989,9.989,0,0,0-.685,2.221,6.5,6.5,0,0,0-.031,2.055,8.561,8.561,0,0,0,1.827,3.913,13.262,13.262,0,0,0,.934,1.09,5.759,5.759,0,0,0,.509.5,6.741,6.741,0,0,0,3.01,1.681,5.574,5.574,0,0,0,1.235.145,7.2,7.2,0,0,0,3.436-.955,9.707,9.707,0,0,0,1.038-.654c.114-.083.228-.166.332-.249a10.056,10.056,0,0,0,.934-.81,28.339,28.339,0,0,0,3.84-4.567v-.01a53.019,53.019,0,0,0,6.29-14.075A44.425,44.425,0,0,0,488.962,115.159Z" transform="translate(-463.465 -100.482)" fill="none" stroke="#8189c3" stroke-miterlimit="10" stroke-width="1"/>
        <path id="Path_99" data-name="Path 99" d="M488.355,115.046a17.846,17.846,0,0,1,2.969-2.024,17.454,17.454,0,0,1,5.657-1.91,5.114,5.114,0,0,1,2.626.125,3.39,3.39,0,0,1,1.069.7,6.182,6.182,0,0,1,1.256,1.775,9.459,9.459,0,0,1,.592,1.505c.052.166.093.343.135.519a10.356,10.356,0,0,1,.27,3.041,2.41,2.41,0,0,1-.031.384c-.01.156-.031.311-.052.467-.031.239-.073.467-.125.7-.052.249-.114.488-.187.727v.021c-1.121,3.726-4.224,6.415-7.349,8.646-.073.052-.135.093-.208.145a10.752,10.752,0,0,1,4.442-1.972,3.689,3.689,0,0,1,3.965,2.211,3.92,3.92,0,0,1-.426,2.937c-.114.218-.239.426-.363.633a.01.01,0,0,0-.01.01,8.84,8.84,0,0,1-.571.778,17.516,17.516,0,0,1-21.631,4.349l-.384-.228" transform="translate(-462.838 -100.38)" fill="none" stroke="#8189c3" stroke-miterlimit="10" stroke-width="1"/>
        <path id="Path_100" data-name="Path 100" d="M515.241,111.068a8.562,8.562,0,0,1-.208.924,20.981,20.981,0,0,1-2.211,4.712c1.048-1.806,6.373-4.276,7.5-1.432a4.436,4.436,0,0,1,.1,2.273c-.031.208-.062.415-.094.633-.01.01-.01.021-.01.042a44.634,44.634,0,0,1-4.422,13.255.01.01,0,0,1-.01.01q-.483.919-1.028,1.775a5.767,5.767,0,0,1-2.678,2.45,3.082,3.082,0,0,1-3.384-.664,4.344,4.344,0,0,1-.862-2,15.332,15.332,0,0,1,.187-6.446,23.475,23.475,0,0,1-4.09,7.017c-.664.789-1.733,1.246-2.232.083" transform="translate(-462.01 -100.377)" fill="none" stroke="#8189c3" stroke-miterlimit="10" stroke-width="1"/>
        <path id="Path_101" data-name="Path 101" d="M501.8,116a.52.52,0,0,1,.031-.073c0-.01.01-.01.01-.021a29.106,29.106,0,0,1,4.266-6.487c.228-.239.457-.467.7-.7a10.491,10.491,0,0,1,6.03-2.958,2.185,2.185,0,0,1,.934.062,2.132,2.132,0,0,1,1.111,1.246,4.364,4.364,0,0,1,.228.612,7.546,7.546,0,0,1,.135,3.571" transform="translate(-462.01 -100.579)" fill="none" stroke="#8189c3" stroke-miterlimit="10" stroke-width="1"/>
        <path id="Path_102" data-name="Path 102" d="M514.75,111.295v-.01c.187-.239.374-.467.581-.7.187-.228.394-.457.612-.675a16.725,16.725,0,0,1,1.339-1.225,14.834,14.834,0,0,1,1.484-1.059l.01-.01a16.291,16.291,0,0,1,4.131-1.868,15.679,15.679,0,0,1,6.165-.571,2.343,2.343,0,0,1,.374.062,3.667,3.667,0,0,1,.571.1,4.746,4.746,0,0,1,.55.145h.01a4.539,4.539,0,0,1,.592.218,1.628,1.628,0,0,1,.239.093,5.094,5.094,0,0,1,1.432.955,3.615,3.615,0,0,1,.436.55l.01.01a2.957,2.957,0,0,1,.374,1c.01.093.031.176.042.26a3.77,3.77,0,0,1-.021.685,1.423,1.423,0,0,1-.062.3c-.021.1-.052.218-.083.322a6.826,6.826,0,0,1-.291.768c-.052.114-.114.228-.176.343a11.5,11.5,0,0,1-2.533,3.083,23.18,23.18,0,0,1-2.325,1.765c-.654.436-1.318.851-1.972,1.256l.01.01a7.462,7.462,0,0,1,1.526,1.806v.01h.01c.062.1.114.208.176.311a9.514,9.514,0,0,1,.613,1.412.032.032,0,0,1,.01.021c.052.145.093.291.135.446a.036.036,0,0,1,.01.021c.041.145.073.291.114.446a.038.038,0,0,0,.01.031c.031.145.062.291.083.446,0,.01.01.021.01.031.021.145.052.3.073.446a11.424,11.424,0,0,1,.01,2.792,14.689,14.689,0,0,1-1.152,4.121c-.187.446-.4.882-.623,1.308-.249.488-.519.965-.789,1.432-.291.477-.581.955-.893,1.412-.239.343-.477.7-.737,1.038a5.8,5.8,0,0,1-2.948,2.242,4.734,4.734,0,0,1-4.328-1.246,5.7,5.7,0,0,1-.747-.841,9.057,9.057,0,0,1-1.412-3.083v-.01l-.042-.166" transform="translate(-461.519 -100.604)" fill="none" stroke="#8189c3" stroke-miterlimit="10" stroke-width="1"/>
        <path id="Path_103" data-name="Path 103" d="M541.165,111.838a11.192,11.192,0,0,1,.779,3.186,26.98,26.98,0,0,1-1.785,11.635c-.083.249-.176.509-.27.758a23.463,23.463,0,0,1-.934,2.232,12.9,12.9,0,0,1-1.225,2.066c-.156.218-.311.426-.488.633l-.01.01a.9.9,0,0,1-.083.1,7.249,7.249,0,0,1-5.75,2.709,4.389,4.389,0,0,1-3.384-1.816,4.748,4.748,0,0,1-.457-.727c-.073-.125-.135-.259-.2-.394a8.568,8.568,0,0,1-.55-1.723v-.01" transform="translate(-461.061 -100.348)" fill="none" stroke="#8189c3" stroke-miterlimit="10" stroke-width="1"/>
        <path id="Path_104" data-name="Path 104" d="M533,109.448a5.439,5.439,0,0,1,4.775-.841,4.534,4.534,0,0,1,1.391.83v.01a4.591,4.591,0,0,1,.55.55,6.609,6.609,0,0,1,1.214,1.962" transform="translate(-460.827 -100.48)" fill="none" stroke="#8189c3" stroke-miterlimit="10" stroke-width="1"/>
        <path id="Path_105" data-name="Path 105" d="M549.473,118.6v-.01c.01-.021.021-.052.031-.073.249-.612.529-1.225.831-1.806,1.349-2.626,3.176-4.837,5.439-5.688a4.415,4.415,0,0,1,.488-.156c2.906-.83,5.024,1,6.342,3.913.125.259.228.529.343.81.073.208.156.415.218.633.062.176.114.343.166.519,1.308,4.339,1.245,10.016-.177,13.556-1.588,3.955-4.982,6.612-8.293,5.989s-6.124-4.826-5.906-9.321a30.379,30.379,0,0,1-3.083,6.113c-1.287,1.765-3,3.1-4.826,3.124a4.552,4.552,0,0,1-4.193-3.8v-.01a3.835,3.835,0,0,1-.052-.6" transform="translate(-460.682 -100.393)" fill="none" stroke="#8189c3" stroke-miterlimit="10" stroke-width="1"/>
        <path id="Path_106" data-name="Path 106" d="M540.55,112.066l.093-.135v-.01c.135-.2.291-.394.436-.571.083-.083.156-.166.239-.249a5.284,5.284,0,0,1,.5-.467c0-.01,0-.01.01-.01a4.625,4.625,0,0,1,.8-.56l.01-.01a4.262,4.262,0,0,1,4.671.052,4.137,4.137,0,0,1,.81.737c.01,0,0,.01,0,.01a5.24,5.24,0,0,1,.685.945,8.093,8.093,0,0,1,.561,6.767" transform="translate(-460.54 -100.441)" fill="none" stroke="#8189c3" stroke-miterlimit="10" stroke-width="1"/>
        <path id="Path_107" data-name="Path 107" d="M539.651,101.463c-.125.114-.27.249-.426.394-2,1.993-5.781,7.027-.342,5.7,2.564-.633,6.8-3.571,3.612-6.186a2.791,2.791,0,0,0-.8-.5,1.416,1.416,0,0,0-.3-.073,1.733,1.733,0,0,0-1.038.176c-.062.042-.135.073-.187.1A3.945,3.945,0,0,0,539.651,101.463Z" transform="translate(-460.71 -100.768)" fill="none" stroke="#8189c3" stroke-miterlimit="10" stroke-width="1"/>
        <path id="Path_108" data-name="Path 108" d="M491.52,118.028a16.77,16.77,0,0,0,1.37,2.553c.768,1.142,1.733,2.149,2.553,1.547" transform="translate(-462.4 -100.113)" fill="none" stroke="#8189c3" stroke-miterlimit="10" stroke-width="1"/>
        <path id="Path_109" data-name="Path 109" d="M494.989,118.028s-.945,1.277-2.034,2.553c-1.246,1.453-2.688,2.906-3.135,2.408" transform="translate(-462.465 -100.113)" fill="none" stroke="#8189c3" stroke-miterlimit="10" stroke-width="1"/>
        <path id="Path_110" data-name="Path 110" d="M519.65,118.088s5.086,3.031,1.5,7.546" transform="translate(-461.333 -100.111)" fill="none" stroke="#8189c3" stroke-miterlimit="10" stroke-width="1"/>
      </g>
    </g>
  </g>
</svg>
