<svg id="圖層_1" data-name="圖層 1" xmlns="http://www.w3.org/2000/svg" viewBox="0 0 841.89 595.28"><defs><style>.cls-1{fill:#5c5958;}.cls-2{fill:#524c83;}.cls-3{fill:none;stroke:#fff;stroke-miterlimit:10;stroke-width:2px;}</style></defs><path d="M774.88,347.82c12.29-30.57,10-84.17-6.9-114.5,16.93,30.32,19.23,83.95,6.93,114.54a81.7,81.7,0,0,1-14.34,23.5A81.94,81.94,0,0,0,774.88,347.82Z"/><path d="M760.57,371.37q-1.5,1.71-3.1,3.29Q759,373.09,760.57,371.37Z"/><path d="M755.05,377c.82-.75,1.62-1.51,2.42-2.3C756.68,375.45,755.87,376.22,755.05,377Z"/><path d="M751.7,379.77c.57-.45,1.13-.9,1.69-1.37C752.83,378.87,752.27,379.33,751.7,379.77Z"/><path d="M749.11,381.68c.87-.61,1.74-1.25,2.59-1.91C750.85,380.44,750,381.08,749.11,381.68Z"/><path class="cls-1" d="M679.82,265l.45-1.08q.47-1.11,1-2.22c9.74-22.07,24-41.57,42.16-48.39,14.4-5.38,26.18-1.73,35.34,7.45A57.2,57.2,0,0,1,768,233.32c16.9,30.33,19.19,83.93,6.9,114.5a81.94,81.94,0,0,1-14.31,23.54s0,0,0,0q-1.53,1.71-3.1,3.29c-.8.79-1.6,1.55-2.42,2.3-.55.48-1.1,1-1.66,1.44s-1.12.92-1.69,1.37c-.85.66-1.72,1.3-2.59,1.91-9.88,6.89-21.06,10.05-32.11,8-23.09-4.35-42.82-33.72-41.29-65.07-6.26,15.05-12.62,30.3-21.56,42.65s-20.89,21.68-33.69,21.85c-11.67.17-26.52-10.06-29.23-26.56l0,0c9.65-11.42,15.49-25.61,20.38-39.75,9-26.1,15.5-53.77,12.5-81.25a79.33,79.33,0,0,0-5.45-22.29s0,0,0,0c11.61-16.68,31.39-23.06,46.48-12.64,14.58,10.08,22.09,36.35,15.48,56.22-.25.75-.52,1.49-.81,2.21Z"/><path d="M680.27,263.89l-.45,1.08h0Z"/><path class="cls-1" d="M630.41,143.16c22.25,18.32-7.34,38.82-25.26,43.21-7.53,1.85-12.52,1.95-15.59.81a7.37,7.37,0,0,1-1.68-.87c-.19-.14-.38-.29-.55-.44-4.7-4.36.56-14.87,7.69-24.62,1.46-2,3-3.94,4.54-5.81.62-.75,1.24-1.48,1.85-2.19,2.16-2.5,4.28-4.77,6.17-6.65,1-1.06,2.06-2,2.95-2.75,3.38-3,7.75-5.4,12.22-4.69a11.1,11.1,0,0,1,3.09,1A21.9,21.9,0,0,1,630.41,143.16Z"/><path d="M620.62,224.61a76.52,76.52,0,0,1,2.48,9.75A80,80,0,0,0,620.62,224.61Z"/><path class="cls-2" d="M610.53,143.82c3.38-3,7.75-5.4,12.22-4.69a11.16,11.16,0,0,1,3.09,1,11.1,11.1,0,0,0-3.09-1c-4.47-.71-8.84,1.7-12.22,4.69-.89.76-1.9,1.69-2.95,2.75C608.58,145.54,609.64,144.6,610.53,143.82Z"/><path d="M618.66,219.21c.36.89.7,1.78,1,2.68C619.36,221,619,220.1,618.66,219.21Z"/><path d="M618.67,219.17s0,0,0,0h0Z"/><path d="M618.67,219.16h0a46.71,46.71,0,0,0-11.3-16.67A46.68,46.68,0,0,1,618.67,219.16Z"/><path d="M618.66,219.2h0Z"/><path d="M618.66,219.19h0v0Z"/><path d="M624.11,241.49c3,27.48-3.49,55.15-12.5,81.25q-.92,2.65-1.89,5.3,1-2.64,1.88-5.3c9-26.1,15.47-53.77,12.5-81.25-.09-1-.2-1.91-.32-2.86C623.91,239.58,624,240.53,624.11,241.49Z"/><path d="M606.35,201.59c.33.29.65.59,1,.9l-1-.92c-.79-.68-1.59-1.31-2.38-1.89C604.74,200.26,605.55,200.9,606.35,201.59Z"/><path d="M609.72,328c-1.29,3.53-2.67,7-4.17,10.48C607.05,335.07,608.43,331.57,609.72,328Z"/><path class="cls-2" d="M601.41,153.25c-.61.71-1.23,1.44-1.85,2.19C600.17,154.69,600.79,154,601.41,153.25Z"/><path class="cls-2" d="M599.56,155.44c-1.54,1.87-3.08,3.82-4.54,5.81C596.47,159.26,598,157.31,599.56,155.44Z"/><path d="M601.29,347.39a85.33,85.33,0,0,1-10.06,15.1h0A85.57,85.57,0,0,0,601.29,347.39Z"/><path d="M611.63,322.74c-4.89,14.14-10.73,28.33-20.38,39.75l0,0v0h0a85.33,85.33,0,0,0,10.06-15.1c1.54-2.89,3-5.86,4.26-8.87,1.5-3.45,2.88-6.95,4.17-10.48q1-2.64,1.89-5.3c9-26.1,15.5-53.77,12.5-81.25-.09-1-.2-1.91-.33-2.86-.19-1.43-.41-2.85-.68-4.27a76.52,76.52,0,0,0-2.48-9.75c-.29-.91-.6-1.82-.93-2.72s-.67-1.79-1-2.68h0s0,0,0,0,0,0,0,0a79.33,79.33,0,0,1,5.45,22.29C627.13,269,620.64,296.64,611.63,322.74Z"/><path d="M590.57,363.3c.22-.27.45-.53.65-.8v0c-.2.26-.43.52-.64.78a56.46,56.46,0,0,1-24.44,16.81A56.63,56.63,0,0,0,590.57,363.3Z"/><path class="cls-2" d="M587.88,186.31a7.37,7.37,0,0,0,1.68.87A6.33,6.33,0,0,1,587.88,186.31Z"/><path class="cls-2" d="M595,161.25c-7.13,9.75-12.39,20.26-7.69,24.62C582.6,181.53,587.87,171,595,161.25Z"/><path class="cls-1" d="M562.88,201.54l.47.1c10.38-6.37,21.45-9.81,32.08-6.36a30.55,30.55,0,0,1,8.5,4.4c.79.58,1.59,1.21,2.38,1.89l1,.92,0,0a46.71,46.71,0,0,1,11.3,16.67v0h0c.36.89.7,1.78,1,2.68s.64,1.81.93,2.72a80,80,0,0,1,2.48,9.75c.27,1.42.49,2.84.68,4.27.12,1,.23,1.9.32,2.86,3,27.48-3.5,55.15-12.5,81.25q-.92,2.65-1.88,5.3c-1.29,3.53-2.67,7-4.17,10.48-1.31,3-2.72,6-4.26,8.87a85.57,85.57,0,0,1-10.07,15.1h0c-.2.27-.43.53-.65.8a56.63,56.63,0,0,1-24.42,16.81,41.34,41.34,0,0,1-15.73,2.12,34.11,34.11,0,0,1-8.2-1.51c-13.6-4.3-20.83-16.79-23.78-31.14a131.3,131.3,0,0,0,7.92-18.47,96.92,96.92,0,0,0,4.48-19.44c2.53-20.92-3.53-43.78-19.54-57.46,18.34-11.41,37.47-23.64,47.7-42.67A38.64,38.64,0,0,0,562.88,201.54Z"/><path d="M544.11,174c.84.3,1.67.62,2.48,1C545.77,174.62,544.94,174.3,544.11,174Z"/><path d="M539.18,172.48c1.66.42,3.3.92,4.9,1.5C542.48,173.4,540.84,172.9,539.18,172.48Z"/><path d="M518.4,349.56a207.65,207.65,0,0,1-11.76,19.86c-6.48,9.79-14.39,19.84-25.73,22.91a25.91,25.91,0,0,1-4.43.8,27.41,27.41,0,0,0,4.38-.8c11.34-3.07,19.25-13.12,25.73-22.91a207.65,207.65,0,0,0,11.76-19.86c6.19-12,10.81-24.61,12.4-37.91,2.53-20.92-3.54-43.78-19.54-57.46,18.34-11.41,37.47-23.67,47.7-42.67a38.64,38.64,0,0,0,3.88-10,22,22,0,0,0,.3-8.66c-1.52-8.55-8.26-14.35-16.47-17.88,8.24,3.52,15,9.32,16.52,17.88a22,22,0,0,1-.3,8.66,38.64,38.64,0,0,1-3.88,10c-10.23,19-29.36,31.26-47.7,42.67,16,13.68,22.07,36.54,19.54,57.46C529.21,325,524.59,337.6,518.4,349.56Z"/><path d="M467.73,248a34.25,34.25,0,0,1-.12,7.7A34.25,34.25,0,0,0,467.73,248Z"/><path d="M466.87,244a17.07,17.07,0,0,1,.53,1.95A20.16,20.16,0,0,0,466.87,244Z"/><path d="M466.52,243c.13.33.25.65.35,1-.11-.32-.22-.64-.35-1s-.34-.8-.53-1.18C466.18,242.19,466.36,242.58,466.52,243Z"/><path d="M463.62,238.41c.26.27.52.56.76.86C464.13,239,463.88,238.68,463.62,238.41Z"/><path class="cls-1" d="M314.71,331c-10.76,1.17-20.43,7-29.63,12.89,20.47-14.64,40.82-32,49.73-55.65.45-1.16.86-2.34,1.24-3.54.05-.13.09-.26.13-.4s.18-.56.26-.84l0-.12q.9-3,1.5-6.14a72,72,0,0,0-.6-31.09c8.46-16.13,17.46-32.18,29.84-45.37,12.5-13.38,28.92-23.74,46.92-25.48a14.81,14.81,0,0,1,6.55.46c3.74,1.33,6.17,5,7.76,8.65a41,41,0,0,1,2.51,7.75c.11.5.21,1,.29,1.51a52.91,52.91,0,0,1,.56,14.17c-.06.68-.13,1.36-.22,2s-.19,1.49-.31,2.23c-.08.53-.17,1.05-.27,1.57v0c-.06.33-.13.66-.19,1-.36,1.87-.79,3.72-1.31,5.52-.42,1.46-.88,2.91-1.37,4.34-3.47,10-8.72,19.34-14,28.51,0-.08.1-.17.16-.25-.06.09-.11.18-.16.27a17.59,17.59,0,0,1,1.72-2.43h0c.47-.54,1-1.09,1.5-1.64a36.57,36.57,0,0,1,2.71-2.47c1-.82,2.06-1.63,3.19-2.42.75-.53,1.53-1.05,2.34-1.55,1.21-.76,2.48-1.49,3.78-2.18.87-.46,1.75-.91,2.65-1.34h0a63.25,63.25,0,0,1,6.92-2.78h0c6.46-2.12,13-3,18.27-1.48a13.89,13.89,0,0,1,6.42,3.71c.26.27.51.56.76.86a13.32,13.32,0,0,1,1.61,2.55c.19.38.37.77.53,1.18s.24.64.35,1a20.16,20.16,0,0,1,.53,1.95,17.34,17.34,0,0,1,.33,2,34.25,34.25,0,0,1-.12,7.7c-.11,1.1-.26,2.18-.42,3.26s-.3,2-.46,3-.33,2-.5,3a314.25,314.25,0,0,1-9.69,40.47c-.32,1-.65,2.06-1,3.09v0l-1,3.09a285.56,285.56,0,0,1-19,44.52l0,.07q-3.42,6.42-7.16,12.41c-4.56,7.36-10.78,14-18.73,17.11s-17.92,1.82-23.64-4.66c-3.37-3.83-4.94-8.94-6-14-3.27-15.32-1.82-29.88,1.28-45a163.49,163.49,0,0,1-28.53,49c-4.67,5.5-12.16,8.69-15.64.56l-.27-.22a49.51,49.51,0,0,0,3.63-6.66.11.11,0,0,0,0-.08c.18-.39.35-.78.5-1.17a32.3,32.3,0,0,0,1.21-3.46,23.18,23.18,0,0,0,.15-13.65C338.87,335.31,326,329.74,314.71,331Z"/><path class="cls-1" d="M431,213.65v0c23.05-30.1,62.38-46.87,100-42.62,1.59.17,3.21.42,4.83.73,1.12.21,2.24.46,3.35.75,1.66.42,3.3.92,4.9,1.5h0c.83.31,1.66.63,2.48,1h0c8.21,3.53,15,9.33,16.47,17.88a22,22,0,0,1-.3,8.66,38.64,38.64,0,0,1-3.88,10c-10.23,19-29.36,31.26-47.7,42.67,16,13.68,22.07,36.54,19.54,57.46-1.59,13.3-6.21,26-12.4,37.91a207.65,207.65,0,0,1-11.76,19.86c-6.48,9.79-14.39,19.84-25.73,22.91a27.41,27.41,0,0,1-4.38.8,28.54,28.54,0,0,1-5.77-.05,35.74,35.74,0,0,1-20.07-9.47c-7.71-7.22-12.38-17.16-15.05-27.43a285.24,285.24,0,0,0,19-44.54q.52-1.54,1-3.09v0c.33-1,.66-2.06,1-3.09A314.25,314.25,0,0,0,466.23,265c.18-1,.34-2,.5-3s.31-2,.46-3,.31-2.16.42-3.26a34.25,34.25,0,0,0,.12-7.7,17.34,17.34,0,0,0-.33-2,17.07,17.07,0,0,0-.53-1.95c-.1-.33-.22-.65-.35-1s-.34-.79-.53-1.16a13.32,13.32,0,0,0-1.61-2.55c-.24-.3-.5-.59-.76-.86a13.89,13.89,0,0,0-6.42-3.71c-5.25-1.47-11.82-.65-18.27,1.48h0A58.79,58.79,0,0,0,432,239h0c-.9.42-1.78.87-2.65,1.34-1.3.69-2.57,1.42-3.78,2.18-.8.5-1.58,1-2.34,1.55-1.13.79-2.2,1.6-3.19,2.42a34.84,34.84,0,0,0-2.71,2.47c-.54.55-1,1.09-1.5,1.64h0a16.63,16.63,0,0,0-1.56,2.16c5.26-9.09,10.44-18.33,13.87-28.26.49-1.43.95-2.88,1.37-4.34.52-1.8.95-3.65,1.31-5.52C430.88,214.29,430.94,214,431,213.65Z"/><path d="M423.22,244c.76-.53,1.54-1.05,2.34-1.55C424.75,243,424,243.5,423.22,244Z"/><path d="M420,246.45a36.57,36.57,0,0,0-2.71,2.47A34.84,34.84,0,0,1,420,246.45Z"/><path d="M415.82,250.56c.46-.55,1-1.09,1.5-1.64C416.78,249.47,416.29,250,415.82,250.56Z"/><path d="M414.26,252.73a16.63,16.63,0,0,1,1.56-2.16A17.59,17.59,0,0,0,414.1,253C414.15,252.91,414.2,252.82,414.26,252.73Z"/><path class="cls-1" d="M314.68,331.09c11.31-1.22,24.16,4.34,27.67,15.44a23.11,23.11,0,0,1-.12,13.53,32.3,32.3,0,0,1-1.21,3.46c-.16.39-.32.78-.5,1.17a.11.11,0,0,1,0,.08,50,50,0,0,1-3.66,6.64l0,0-.06.1c-1.23,1.91-2.58,3.75-3.95,5.47-35.53,44.52-101.94,57.36-151.1,30.32l-2.67-1.57a258.87,258.87,0,0,0,19.79-34.85.08.08,0,0,1,0,0c1-2,1.89-4,2.8-6.05s1.82-4.1,2.71-6.17,1.76-4.16,2.62-6.27q2.94-7.2,5.64-14.56l.44-1.2,0,0,1.14-3.16,0,0c.37-1.06.75-2.11,1.12-3.17l0,0c.22-.64.44-1.28.67-1.92q1.35-3.87,2.65-7.77c.36-1.06.72-2.13,1.07-3.2,0,0,0,0,0-.05.36-1.07.71-2.14,1.06-3.21a.11.11,0,0,1,0-.05c.35-1.07.7-2.14,1-3.21,0,0,0,0,0-.05.36-1.07.7-2.15,1-3.22a.09.09,0,0,1,0-.05l.18-.55s0,0,0-.05c.07-.19.13-.38.19-.58a.11.11,0,0,1,0-.05c.07-.19.13-.39.19-.59a.43.43,0,0,1,0-.05l.2-.62a.09.09,0,0,1,0-.05c.07-.21.14-.42.2-.64q.16-.57.36-1.17c0-.1.07-.21.1-.32s.15-.46.22-.7a.09.09,0,0,1,0-.05c.07-.2.13-.41.19-.62l0-.1,0-.06c.07-.24.14-.49.22-.73a.14.14,0,0,1,0-.06c.07-.25.15-.5.22-.75,0,0,0,0,0-.06.08-.25.15-.5.23-.76a.14.14,0,0,1,0-.06c.07-.26.15-.52.23-.78a.14.14,0,0,1,0-.06c.07-.27.15-.54.23-.8,0,0,0,0,0-.06l.24-.82a.14.14,0,0,1,0-.06c0-.16.09-.32.14-.49s.07-.26.11-.39.16-.57.25-.86a.07.07,0,0,1,0-.05c0-.09.05-.18.08-.27s.11-.4.17-.61l0-.06c0-.09.05-.17.07-.26l.12-.41a2.5,2.5,0,0,1,.07-.26l.25-.91,0,0c.08-.31.17-.62.25-.92,0,0,0,0,0-.05.08-.31.17-.62.25-.93,0,0,0,0,0-.06l.54-2c0-.17.09-.34.13-.51.34-1.28.69-2.59,1-3.93.14-.53.27-1.06.41-1.6,0-.07,0-.15,0-.22a264.26,264.26,0,0,0,6.2-32.81c.18-1.58.34-3.16.47-4.73.08-.79.14-1.58.2-2.37h.11A122.23,122.23,0,0,1,297.64,214c6.11-.93,12.55-1.35,18.32.91,7.44,2.92,12.69,9.89,16.28,17.21a69.86,69.86,0,0,1,4.11,10.44h0c.35,1.16.67,2.33.95,3.51l0,.11a72.1,72.1,0,0,1,.64,31q-.6,3.09-1.5,6.14c-.1.32-.2.64-.29,1,0,.14-.08.27-.13.4-.39,1.2-.8,2.38-1.24,3.54-9.13,24.08-30.2,41.71-51.1,56.53l1.37-.88-1.4,1C293.3,338.67,303.37,332.31,314.68,331.09Z"/><path d="M340.52,364.69c.18-.39.34-.78.5-1.17C340.87,363.91,340.7,364.3,340.52,364.69Z"/><path d="M367.21,200.71c-12.38,13.19-21.38,29.24-29.84,45.37,0,0,0,0,0,0,8.47-16.16,17.48-32.24,29.88-45.45,12.5-13.38,28.92-23.74,46.92-25.48a14.81,14.81,0,0,1,6.55.46c3.74,1.33,6.17,5,7.76,8.65a43,43,0,0,1,2.48,7.87,41,41,0,0,0-2.51-7.75c-1.59-3.65-4-7.32-7.76-8.65a14.81,14.81,0,0,0-6.55-.46C396.13,177,379.71,187.33,367.21,200.71Z"/><path d="M336.83,371.41a50,50,0,0,0,3.66-6.64,49.51,49.51,0,0,1-3.63,6.66Z"/><path d="M336.47,283.31l0,.12c-.08.28-.17.56-.26.84C336.27,284,336.37,283.63,336.47,283.31Z"/><path d="M334.81,288.21c.44-1.16.85-2.34,1.24-3.54C335.67,285.87,335.26,287.05,334.81,288.21Z"/><path d="M334.81,288.21c-8.91,23.61-29.26,41-49.73,55.65l-1.37.88C304.61,329.92,325.68,312.29,334.81,288.21Z"/><path d="M237.27,241.47h0c-.06.79-.12,1.58-.2,2.37C237.15,243.05,237.21,242.26,237.27,241.47Z"/><path d="M237.08,243.84c-.13,1.57-.29,3.15-.47,4.73C236.78,247,237,245.41,237.08,243.84Z"/><path d="M230.15,282.41l.21-.81c-.14.54-.27,1.07-.41,1.6C230,282.94,230.09,282.67,230.15,282.41Z"/><path d="M228.79,287.64h0l-.54,2c.08-.31.17-.62.25-.94S228.7,288,228.79,287.64Z"/><path d="M228.26,289.64s0,0,0,.06,0,0,0-.05Z"/><path d="M228,290.63s0,0,0,.05a.43.43,0,0,0,0-.05Z"/><path d="M227.72,291.6l0,0a.43.43,0,0,0,0,0Z"/><path d="M227.45,292.56a2.5,2.5,0,0,0-.07.26C227.4,292.74,227.43,292.65,227.45,292.56Z"/><path d="M227.19,293.49l0,.06s0,0,0-.05Z"/><path d="M226.92,294.43a.07.07,0,0,0,0,.05c-.09.28-.17.56-.25.84C226.75,295,226.84,294.73,226.92,294.43Z"/><path d="M226.66,295.34c0,.13-.08.26-.11.39C226.58,295.6,226.62,295.47,226.66,295.34Z"/><path d="M226.41,296.22a.14.14,0,0,0,0,.06.09.09,0,0,1,0,0Z"/><path d="M226.15,297.1s0,0,0,.06a.43.43,0,0,1,0-.05Z"/><path d="M225.9,298a.14.14,0,0,0,0,.06.07.07,0,0,1,0,0A0,0,0,0,1,225.9,298Z"/><path d="M225.65,298.8a.14.14,0,0,0,0,.06.09.09,0,0,1,0-.05Z"/><path d="M225.4,299.62s0,0,0,.06,0,0,0-.05Z"/><path d="M225.16,300.43a.14.14,0,0,0,0,.06.43.43,0,0,0,0-.05Z"/><path d="M224.92,301.22l0,.06s0,0,0,0Z"/><path d="M224.68,302a.09.09,0,0,0,0,.05c-.08.23-.15.46-.22.69Z"/><path d="M224.45,302.75c0,.11-.07.22-.1.32C224.38,303,224.42,302.86,224.45,302.75Z"/><path d="M223.79,304.88a.09.09,0,0,0,0,.05l-.2.6Z"/><path d="M223.58,305.55a.43.43,0,0,0,0,.05c-.07.2-.13.39-.19.58C223.44,306,223.51,305.76,223.58,305.55Z"/><path d="M223.38,306.19a.11.11,0,0,0,0,.05c-.07.19-.13.38-.19.56C223.25,306.6,223.31,306.39,223.38,306.19Z"/><path d="M223.18,306.82s0,0,0,.05l-.18.53C223.05,307.21,223.11,307,223.18,306.82Z"/><path d="M223,307.42a.09.09,0,0,0,0,.05l-1,3.2Z"/><path d="M221.94,310.69s0,0,0,.05c-.34,1.07-.69,2.13-1,3.19Z"/><path d="M220.89,314a.11.11,0,0,0,0,.05c-.35,1.07-.7,2.13-1.06,3.19C220.18,316.11,220.53,315,220.89,314Z"/><path d="M219.82,317.21s0,0,0,.05l-1.07,3.18Z"/><path d="M218.74,320.44v0q-1.31,3.9-2.65,7.77c-.22.64-.44,1.27-.67,1.9Q217.12,325.3,218.74,320.44Z"/><path d="M215.42,330.13c.23-.63.45-1.26.67-1.9-.23.64-.45,1.28-.67,1.92Z"/><path d="M215.42,330.13v0l0,0A.14.14,0,0,1,215.42,330.13Z"/><path d="M215.4,330.19c-.37,1.06-.75,2.11-1.12,3.17v0C214.65,332.29,215,331.24,215.4,330.19Z"/><path d="M214.28,333.34v0l0,0A.14.14,0,0,1,214.28,333.34Z"/><path class="cls-1" d="M213.43,193.69c21,1.87,25.56,23.4,23.85,47.73v.05h0c-.06.79-.12,1.58-.19,2.37-.13,1.57-.3,3.14-.47,4.73a264.26,264.26,0,0,1-6.2,32.81c-.09.34-.17.69-.26,1s-.13.53-.2.79c-.33,1.34-.68,2.65-1,3.93-.05.17-.09.34-.14.51-.09.36-.19.71-.28,1.06s-.17.64-.26.95c0,0,0,0,0,.05-.09.31-.17.62-.26.93a.43.43,0,0,1,0,.05c-.09.31-.17.62-.26.92a.43.43,0,0,1,0,0l-.25.91c0,.09,0,.18-.07.26l-.12.41c0,.09,0,.18-.08.27s0,0,0,.05c-.06.21-.12.41-.17.61s-.05.18-.08.27c-.08.3-.17.6-.26.89v0c0,.13-.08.26-.11.39s-.1.33-.15.5a.09.09,0,0,0,0,0c-.09.28-.17.55-.25.83a.43.43,0,0,0,0,.05l-.24.81a.07.07,0,0,0,0,0l-.24.79a.09.09,0,0,0,0,.05l-.24.77s0,0,0,.05c-.08.26-.15.51-.23.76a.43.43,0,0,1,0,.05c-.08.25-.15.5-.23.74,0,0,0,0,0,0l0,.1c-.07.21-.13.41-.19.62l-.23.74h0c0,.11-.07.21-.1.32q-.19.6-.36,1.17c-.07.22-.14.43-.2.64l-.21.65v0c-.07.21-.14.42-.2.63h0c-.07.2-.13.41-.2.61v0c-.07.2-.13.39-.19.58v0l-1.05,3.25v0l-1.05,3.24v0c-.36,1.08-.71,2.16-1.07,3.24v0l-1.08,3.23q-1.63,4.86-3.32,9.69a.14.14,0,0,0,0,.06c-.38,1.05-.75,2.1-1.12,3.15a.14.14,0,0,0,0,.06l-1.14,3.14a.14.14,0,0,0,0,.06c-2.73,7.45-5.61,14.81-8.7,22a276.8,276.8,0,0,1-25.31,47.05,201.31,201.31,0,0,1-26.84,32c-13.16,12.67-31.3,21.68-48.74,17.6a43,43,0,0,1-13.24-5.71,61.5,61.5,0,0,1-9.62-7.73c-1.77-1.74-3.47-3.57-5.08-5.46-.55-.65-1.09-1.29-1.61-1.95s-1-1.3-1.53-2a69,69,0,0,1-11-19.89,44.75,44.75,0,0,1-1.77-7.46c-.08-.52-.14-1-.2-1.56-1.29-12,2.61-24.11,8.33-34.67l.49-.89c6.31-11.33,13.79-21.38,21.71-31.08,6.17-7.55,12.6-14.89,19-22.46-2.65-.76-5.37-.95-8-1.76a47.27,47.27,0,0,1-28.77-26.23,50.7,50.7,0,0,1,.09-39.89c3.87-8.82,10.53-16.48,19-20.38a27.09,27.09,0,0,1,6.36-2,34,34,0,0,1,4.22-.53c17.59-1.13,39.84,9.41,53.2,16.63v-.05l.08,0v-.07c5.48-7.87,12.17-17.78,20-26.44h0q1.68-1.85,3.42-3.62l.88-.88C189.19,199.6,200.58,192.54,213.43,193.69Z"/><path d="M214.26,333.4l-1.14,3.16v0Z"/><path d="M213.12,336.54v0l0,0A.14.14,0,0,1,213.12,336.54Z"/><path d="M204.4,358.63c3.09-7.22,6-14.58,8.7-22l-.44,1.2q-2.72,7.35-5.64,14.56C206.16,354.47,205.29,356.55,204.4,358.63Z"/><path d="M179.39,209.27l-.88.88C178.8,209.85,179.09,209.55,179.39,209.27Z"/><path d="M178.51,210.15q-1.74,1.77-3.42,3.62Q176.77,211.91,178.51,210.15Z"/><path d="M155.1,240.22v.07l-.08,0v0c5.52-7.87,12.23-17.79,20.06-26.45C167.27,222.44,160.58,232.35,155.1,240.22Z"/><path d="M198.87,370.9a259.33,259.33,0,0,1-19.78,34.8,201.31,201.31,0,0,1-26.84,32c-13.16,12.67-31.3,21.68-48.74,17.6a42.35,42.35,0,0,1-13.24-5.73,43,43,0,0,0,13.24,5.71c17.44,4.08,35.58-4.93,48.74-17.6a201.31,201.31,0,0,0,26.84-32,276.8,276.8,0,0,0,25.31-47.05q-1.34,3.11-2.71,6.17c-.92,2-1.85,4-2.8,6.05A.08.08,0,0,0,198.87,370.9Z"/><path d="M72.43,432.47c.5.66,1,1.31,1.53,2-.52-.64-1-1.29-1.53-1.94a68.46,68.46,0,0,1-11-19.91A69,69,0,0,0,72.43,432.47Z"/><path d="M91.24,226.2c-8.47,3.9-15.13,11.56-19,20.38a50.7,50.7,0,0,0-.09,39.89,47.27,47.27,0,0,0,28.77,26.23c2.63.81,5.35,1,8,1.76-6.35,7.57-12.78,14.91-19,22.46,6.15-7.54,12.56-14.88,18.87-22.45-2.63-.78-5.35-1-8-1.76a47.27,47.27,0,0,1-28.77-26.23,50.7,50.7,0,0,1,.09-39.89c3.88-8.82,10.54-16.48,19-20.38a27.27,27.27,0,0,1,6.44-2A27.09,27.09,0,0,0,91.24,226.2Z"/><path d="M67.77,368.89c-5.72,10.56-9.62,22.67-8.33,34.67C58.15,391.55,62,379.44,67.77,368.89Z"/><path class="cls-3" d="M237.28,241.47v-.05c1.71-24.33-2.85-45.86-23.85-47.73-12.85-1.15-24.24,5.91-34,15.58l-.88.88q-1.74,1.77-3.42,3.62h0c-7.81,8.66-14.5,18.57-20,26.44v.07l-.08,0c-13.39-7.23-35.63-17.75-53.2-16.58a34,34,0,0,0-4.22.53,27.09,27.09,0,0,0-6.36,2c-8.47,3.9-15.13,11.56-19,20.38a50.7,50.7,0,0,0-.09,39.89,47.27,47.27,0,0,0,28.77,26.23c2.63.81,5.35,1,8,1.76-6.35,7.57-12.78,14.91-19,22.46-7.92,9.7-15.4,19.75-21.71,31.08l-.49.89c-5.72,10.56-9.62,22.67-8.33,34.67.06.52.12,1,.2,1.56a44.75,44.75,0,0,0,1.77,7.46,69,69,0,0,0,11,19.89c.5.66,1,1.31,1.53,2s1.06,1.3,1.61,1.95c1.6,1.89,3.3,3.73,5.08,5.46a61.5,61.5,0,0,0,9.62,7.73,43,43,0,0,0,13.24,5.71c17.44,4.08,35.58-4.93,48.74-17.6a201.31,201.31,0,0,0,26.84-32,276.8,276.8,0,0,0,25.31-47.05c3.09-7.22,6-14.58,8.7-22a.14.14,0,0,1,0-.06l1.14-3.14a.14.14,0,0,1,0-.06c.37-1,.74-2.1,1.12-3.15a.14.14,0,0,1,0-.06q1.7-4.83,3.32-9.69l1.08-3.23v0c.36-1.08.71-2.16,1.07-3.24v0l1.05-3.24v0l1.05-3.25v0c.06-.19.12-.38.19-.58v0c.07-.2.13-.41.2-.61h0c.06-.21.13-.42.2-.63v0l.21-.65c.06-.21.13-.42.2-.64q.16-.57.36-1.17c0-.11.07-.21.1-.32h0l.23-.74c.06-.21.12-.41.19-.62l0-.1,0-.06c.07-.24.14-.49.22-.73a.14.14,0,0,1,0-.06c.07-.25.15-.5.22-.75,0,0,0,0,0-.06.08-.25.15-.5.23-.76a.14.14,0,0,1,0-.06c.07-.26.15-.52.23-.78a.14.14,0,0,1,0-.06c.07-.27.15-.54.23-.8,0,0,0,0,0-.06l.24-.82a.14.14,0,0,1,0-.06c0-.16.09-.32.14-.49s.07-.26.11-.39v0c.09-.29.18-.59.26-.89,0-.09.05-.18.08-.27s.11-.4.17-.61l0-.06c0-.09.05-.17.07-.26l.12-.41c0-.08.05-.17.07-.26l.25-.91,0,0c.08-.31.17-.62.25-.92,0,0,0,0,0-.05.08-.31.17-.62.25-.93,0,0,0,0,0-.06l.54-2c0-.17.09-.34.13-.51.34-1.28.69-2.59,1-3.93.14-.53.27-1.06.41-1.6,0-.07,0-.15,0-.22a264.26,264.26,0,0,0,6.2-32.81c.18-1.58.34-3.16.47-4.73C237.16,243.05,237.22,242.26,237.28,241.47Z"/><path class="cls-3" d="M237.4,241.42a122.23,122.23,0,0,1,60.25-27.5c6.11-.93,12.55-1.35,18.32.91,7.44,2.92,12.69,9.89,16.28,17.21a69.32,69.32,0,0,1,4.1,10.49h0c.35,1.16.67,2.33.95,3.51l0,.11a72.1,72.1,0,0,1,.64,31q-.6,3.09-1.5,6.14l0,.12c-.08.28-.17.56-.26.84s-.08.27-.13.4c-.38,1.2-.79,2.38-1.24,3.54-8.91,23.61-29.26,41-49.73,55.65l-1.4,1c9.62-6.19,19.69-12.55,31-13.77s24.16,4.34,27.67,15.44a23.11,23.11,0,0,1-.12,13.53,32.3,32.3,0,0,1-1.21,3.46c-.15.39-.32.78-.5,1.17a.11.11,0,0,1,0,.08,49.51,49.51,0,0,1-3.63,6.66l-.06.1c-1.23,1.91-2.58,3.75-3.95,5.47-35.53,44.52-101.94,57.36-151.1,30.32l-2.67-1.57"/><path class="cls-3" d="M431,213.62c-.06.33-.13.66-.19,1-.36,1.87-.79,3.72-1.31,5.52-.42,1.46-.88,2.91-1.37,4.34-3.47,10-8.72,19.34-14,28.51,0-.08.1-.17.16-.25a16.63,16.63,0,0,1,1.56-2.16h0c.46-.55,1-1.09,1.5-1.64a34.84,34.84,0,0,1,2.71-2.47c1-.82,2.06-1.63,3.19-2.42.76-.53,1.54-1.05,2.34-1.55,1.21-.76,2.48-1.49,3.78-2.18.87-.46,1.75-.91,2.65-1.34h0a63.25,63.25,0,0,1,6.92-2.78h0c6.46-2.12,13-3,18.27-1.48a13.89,13.89,0,0,1,6.42,3.71c.26.27.52.56.76.86a13.32,13.32,0,0,1,1.61,2.55c.19.37.37.76.53,1.16s.25.65.35,1a17.07,17.07,0,0,1,.53,1.95,17.34,17.34,0,0,1,.33,2,34.25,34.25,0,0,1-.12,7.7c-.11,1.1-.26,2.18-.42,3.26s-.3,2-.46,3-.33,2-.5,3a314.25,314.25,0,0,1-9.69,40.47c-.32,1-.65,2.06-1,3.09v0l-1,3.09a285.56,285.56,0,0,1-19,44.52l0,.07q-3.42,6.42-7.16,12.41c-4.56,7.36-10.78,14-18.73,17.11s-17.92,1.82-23.64-4.66c-3.37-3.83-4.94-8.94-6-14-3.27-15.32-1.82-29.88,1.28-45a163.49,163.49,0,0,1-28.53,49c-4.67,5.5-12.16,8.69-15.64.56"/><path class="cls-3" d="M337.06,246.67c.1-.17.17-.34.27-.51s0,0,0-.08c8.46-16.13,17.46-32.18,29.84-45.37,12.5-13.38,28.92-23.74,46.92-25.48a14.81,14.81,0,0,1,6.55.46c3.74,1.33,6.17,5,7.76,8.65a41,41,0,0,1,2.51,7.75c.11.5.21,1,.29,1.51a52.06,52.06,0,0,1,.56,14.17c-.06.68-.13,1.36-.22,2s-.19,1.49-.31,2.23c-.08.53-.17,1.05-.27,1.57"/><path class="cls-3" d="M431,213.65v-.05c23.05-30.1,62.38-46.87,100-42.62,1.59.18,3.21.43,4.83.75,1.12.21,2.24.46,3.35.75,1.66.42,3.3.92,4.9,1.5h0c.83.31,1.66.63,2.48,1h0c8.21,3.53,15,9.33,16.47,17.88a22,22,0,0,1-.3,8.66,38.64,38.64,0,0,1-3.88,10c-10.23,19-29.36,31.26-47.7,42.67,16,13.68,22.07,36.54,19.54,57.46-1.59,13.3-6.21,26-12.4,37.91a207.65,207.65,0,0,1-11.76,19.86c-6.48,9.79-14.39,19.84-25.73,22.91a27.41,27.41,0,0,1-4.38.8,28.54,28.54,0,0,1-5.77-.05,35.66,35.66,0,0,1-20.12-9.47c-7.7-7.21-12.36-17.13-15-27.38,0,0,0,0,0-.05l-.3-1.15"/><path class="cls-3" d="M563.31,201.62c10.39-6.38,21.48-9.82,32.12-6.34a30.55,30.55,0,0,1,8.5,4.4c.79.58,1.59,1.21,2.38,1.89l1,.92,0,0a46.71,46.71,0,0,1,11.3,16.67h0c.36.89.7,1.78,1,2.68s.64,1.81.93,2.72a76.52,76.52,0,0,1,2.48,9.75c.27,1.42.49,2.84.68,4.27.13,1,.24,1.9.33,2.86,3,27.48-3.49,55.15-12.5,81.25q-.92,2.65-1.89,5.3c-1.29,3.53-2.67,7-4.17,10.48-1.31,3-2.72,6-4.26,8.87a85.33,85.33,0,0,1-10.06,15.1h0c-.2.27-.43.53-.65.8a56.63,56.63,0,0,1-24.42,16.81,41.34,41.34,0,0,1-15.73,2.12,34.11,34.11,0,0,1-8.2-1.51c-13.62-4.29-20.85-16.78-23.8-31.14"/><path class="cls-3" d="M679.34,266.12s0,0,0,0c.15-.37.3-.74.46-1.11l.45-1.08q.47-1.11,1-2.22c9.71-22.08,23.91-41.61,42.13-48.43,14.43-5.39,26.22-1.72,35.37,7.49A57.2,57.2,0,0,1,768,233.32c16.9,30.33,19.19,83.93,6.9,114.5a81.94,81.94,0,0,1-14.31,23.54s0,0,0,0q-1.53,1.71-3.1,3.29c-.8.79-1.6,1.55-2.42,2.3-.55.48-1.1,1-1.66,1.44s-1.12.92-1.69,1.37c-.85.66-1.72,1.3-2.59,1.91-9.88,6.89-21.06,10.05-32.11,8-23.09-4.35-42.82-33.72-41.29-65.07-6.26,15.05-12.62,30.3-21.56,42.65s-20.89,21.68-33.69,21.85c-11.67.17-26.52-10.06-29.23-26.56v0h0a32.83,32.83,0,0,1-.42-4.2"/><path class="cls-3" d="M618,220.16l.65-1v0h0c11.61-16.7,31.4-23.1,46.5-12.67,14.59,10.09,22.1,36.38,15.46,56.26-.25.75-.52,1.49-.81,2.21h0"/><path class="cls-3" d="M607.58,146.6c-1.89,1.88-4,4.15-6.17,6.65-.61.71-1.23,1.44-1.85,2.19-1.54,1.87-3.08,3.82-4.54,5.81-7.13,9.75-12.39,20.26-7.69,24.62.17.15.36.3.55.44a7.37,7.37,0,0,0,1.68.87c3.07,1.14,8.06,1,15.59-.81,17.92-4.39,47.51-24.89,25.26-43.21a21.9,21.9,0,0,0-4.57-3,11.1,11.1,0,0,0-3.09-1c-4.47-.71-8.84,1.7-12.22,4.69C609.64,144.61,608.63,145.54,607.58,146.6Z"/><path class="cls-3" d="M262.54,264.13a128.51,128.51,0,0,0,9.6,17.78c5.35,8,12.1,15,17.8,10.83"/><path class="cls-3" d="M286.33,264.13s-6.55,8.91-14.19,17.78c-8.69,10.19-18.78,20.33-21.88,16.84"/><path class="cls-3" d="M466.47,264.57S502,285.74,477,317.26"/></svg>